<svg width="1340" height="884" viewBox="0 0 1340 884" fill="none" xmlns="http://www.w3.org/2000/svg">
<path d="M142.21 883.12L1.81992 314.53C-0.863077 303.635 -0.212089 292.186 3.68891 281.666C7.59091 271.146 14.5619 262.041 23.6999 255.53L366.54 11.26C373.046 6.62299 380.468 3.43099 388.309 1.89999C396.15 0.36799 404.228 0.532001 412 2.38L1189.43 186.67C1199.14 188.965 1208.06 193.813 1215.27 200.712C1222.48 207.61 1227.71 216.31 1230.43 225.91L1337.25 603.35C1339.94 612.843 1340.07 622.877 1337.63 632.437C1335.19 641.996 1330.27 650.743 1323.37 657.79L1102.68 883L142.21 883.12Z" fill="#803155"/>
<path opacity="0.9" d="M142.21 883.12L1.81992 314.53C-0.863077 303.635 -0.212089 292.186 3.68891 281.666C7.59091 271.146 14.5619 262.041 23.6999 255.53L366.54 11.26C373.046 6.62299 380.468 3.43099 388.309 1.89999C396.15 0.36799 404.228 0.532001 412 2.38L1189.43 186.67C1199.14 188.965 1208.06 193.813 1215.27 200.712C1222.48 207.61 1227.71 216.31 1230.43 225.91L1337.25 603.35C1339.94 612.843 1340.07 622.877 1337.63 632.437C1335.19 641.996 1330.27 650.743 1323.37 657.79L1102.68 883L142.21 883.12Z" fill="#F5B0CB"/>
<path d="M142.21 883L50.8999 513.3C91.4899 510.54 166.28 500.12 285.57 465.15C475.51 409.48 688.25 339.79 769.49 285.44C850.73 231.09 897.49 314.51 1037.78 354.95C1127.78 380.9 1222.29 391.55 1278.45 395.86L1337.17 603.34C1339.86 612.833 1339.99 622.867 1337.55 632.427C1335.11 641.986 1330.19 650.733 1323.29 657.78L1102.68 883H142.21Z" fill="#157075"/>
<path opacity="0.6" d="M142.21 883L50.8999 513.3C91.4899 510.54 166.28 500.12 285.57 465.15C475.51 409.48 688.25 339.79 769.49 285.44C850.73 231.09 897.49 314.51 1037.78 354.95C1127.78 380.9 1222.29 391.55 1278.45 395.86L1337.17 603.34C1339.86 612.833 1339.99 622.867 1337.55 632.427C1335.11 641.986 1330.19 650.733 1323.29 657.78L1102.68 883H142.21Z" fill="#CCFCCB"/>
<path d="M1278.46 395.91C1224.95 391.79 1136.01 381.68 1045.46 357.12C979.98 339.37 920.62 303.98 860.86 275.61C860.86 275.61 891.11 295.17 865.54 343.66C839.97 392.15 856.72 405.75 966.05 422.75C1075.38 439.75 1172.36 406.59 1185.58 477.83C1198.58 548.14 1027.41 647.98 783.5 681.11C805.251 686.088 827.295 689.688 849.5 691.89C937.5 700.61 1000.44 696.03 1040.3 689.77C1078.15 661 1116.24 633.98 1157.68 617.12C1237.68 584.58 1296.44 577.91 1329.92 577.61L1278.46 395.91Z" fill="#157075"/>
<path opacity="0.7" d="M1278.46 395.91C1224.95 391.79 1136.01 381.68 1045.46 357.12C979.98 339.37 920.62 303.98 860.86 275.61C860.86 275.61 891.11 295.17 865.54 343.66C839.97 392.15 856.72 405.75 966.05 422.75C1075.38 439.75 1172.36 406.59 1185.58 477.83C1198.58 548.14 1027.41 647.98 783.5 681.11C805.251 686.088 827.295 689.688 849.5 691.89C937.5 700.61 1000.44 696.03 1040.3 689.77C1078.15 661 1116.24 633.98 1157.68 617.12C1237.68 584.58 1296.44 577.91 1329.92 577.61L1278.46 395.91Z" fill="#CCFCCB"/>
<path d="M229.44 680.16C228.39 671.43 227.05 661.4 225.53 652.96L224.15 653.04L221.15 653.21C224.53 661.992 227.3 670.997 229.44 680.16Z" fill="#157075"/>
<path opacity="0.3" d="M229.44 680.16C228.39 671.43 227.05 661.4 225.53 652.96L224.15 653.04L221.15 653.21C224.53 661.992 227.3 670.997 229.44 680.16Z" fill="white"/>
<path d="M908.42 696C907.86 710.17 908.42 729.09 909.15 745.07C910.07 729.933 912.16 714.889 915.38 700.07C913.97 713.91 913.88 733.49 914.14 749.32C915.74 739.746 917.96 730.286 920.79 721C918.35 733.9 916.88 753.69 916.17 765.69C921.48 747.585 928.68 730.088 937.65 713.49C931.28 729.16 924.78 753.73 921.54 766.7C928.54 751.59 939.7 738.85 939.7 738.85C933.03 749.54 926.7 766.93 924.7 772.69L925.28 772.35C926.34 771.72 927.39 771.1 928.44 770.46L928.69 770.31C936.11 765.83 943.44 761.163 950.69 756.31L950.87 756.19C952 755.43 953.12 754.68 954.24 753.91L954.62 753.65L957.9 751.41L958.34 751.11L961.58 748.86L962.04 748.54L965.29 746.25L965.67 745.98L969.02 743.6L969.23 743.45C993.31 726.23 1016.75 707.67 1040.23 689.79C1010 694.55 966.27 698.33 908.42 696Z" fill="#157075"/>
<path d="M849.51 691.81C683 675.3 599.8 588.64 498.92 593.93C398.61 599.19 347.2 645.71 226.27 652.83C229.582 664.602 232.124 676.578 233.88 688.68C234.09 680.16 234.18 669.1 233.58 661.56C235.381 671.607 236.294 681.793 236.31 692C238.372 680.401 241.64 669.05 246.06 658.13C242.62 670.53 239.79 691.65 238.9 698.75C241.82 686.86 249.42 676.92 249.42 676.92C246.03 683.8 243.23 695.47 242.3 699.63C243.3 699.55 244.38 699.48 245.42 699.42C246.01 699.42 246.58 699.33 247.17 699.3L248.88 699.2L249.96 699.14L251.88 699.04L254.42 698.91L256.11 698.83L257.75 698.78L260.3 698.7L263.3 698.6H263.66C264.31 698.6 264.98 698.6 265.66 698.6H268.75H270.53H278.31H280H281.61L285.69 698.69H287.5H288.6H289.6L294.35 698.88H295.12H296.12H297.17H297.48L303.14 699.21H303.52L305.14 699.31H305.52C307.68 699.46 309.86 699.63 312.04 699.82L312.98 699.89L313.98 699.98C319.353 700.453 324.803 701.027 330.33 701.7L331.52 701.84L332.11 701.92C334.57 702.233 337.04 702.567 339.52 702.92H339.71L340.28 703C346.32 703.86 352.45 704.86 358.67 706L359.19 706.09L359.8 706.21C369.04 707.89 378.477 709.867 388.11 712.14L393.19 713.35L394.81 713.74L398.19 714.56L400.19 715.04L403.19 715.77L405.25 716.28L408.05 716.98L410.12 717.5L412.81 718.18L414.94 718.72L417.51 719.38L419.64 719.93L422.15 720.58L424.23 721.12L426.73 721.78L428.73 722.32L431.21 722.98L433.21 723.51L435.67 724.17L437.67 724.7L440.07 725.36L442.01 725.89L444.38 726.55L446.27 727.08L448.65 727.75L450.46 728.26L452.89 728.95L454.58 729.43L457.2 730.19L458.65 730.61L462.47 731.73H462.64L466.95 733.01L468.32 733.42L471.27 734.31L472.8 734.78L475.64 735.65L477.04 736.08L481.04 737.3H481.17L486.35 738.93L487.35 739.26L492.26 740.84L493.26 741.16L498.07 742.73L498.28 742.8L503.13 744.41L504.13 744.73L508.74 746.29L509.59 746.58L514 748.09L514.34 748.21L518.83 749.77L519.78 750.1L524.06 751.61L524.85 751.89L528.91 753.34L529.31 753.48L533.53 755.01L534.4 755.33L538.46 756.82L539.13 757.07L542.9 758.47L543.41 758.66L547.33 760.13L548.19 760.45L552 761.89L552.6 762.12L556.19 763.49L556.67 763.67L560.4 765.1L561.22 765.42L564.83 766.81L565.39 767.03L568.9 768.39L569.22 768.52L572.91 769.95L573.65 770.24L577.06 771.57L580.74 773L581.26 773.2L584.72 774.55L585.38 774.81L588.89 776.17L589.18 776.28L592.43 777.54L593.01 777.76L596.32 779.03L596.99 779.29L600.37 780.58L600.63 780.68L603.8 781.88L604.42 782.11L607.67 783.32L608.32 783.56L611.65 784.79L611.82 784.85L615.04 786.02L615.64 786.24L618.88 787.4L619.51 787.62C621.743 788.407 623.977 789.183 626.21 789.95L626.85 790.17L630.1 791.27L630.7 791.47C631.79 791.83 632.89 792.2 633.99 792.55H634.12L637.47 793.62L638.15 793.84C639.24 794.18 640.33 794.53 641.43 794.84L642.04 795.03L645.31 796.03L645.53 796.09L648.94 797.09L649.64 797.29L653.02 798.29L653.59 798.45L656.91 799.36L657.23 799.45L660.74 800.38L661.46 800.57L664.98 801.46L665.54 801.6L668.94 802.43L669.36 802.53C670.56 802.82 671.78 803.1 673 803.37L673.75 803.54C674.97 803.81 676.19 804.09 677.42 804.35L677.98 804.47L681.53 805.22L682.02 805.32L685.82 806.08L686.63 806.24L690.5 806.97L691.02 807.06L694.77 807.73L695.35 807.83L699.35 808.51L700.19 808.65L704.32 809.3L704.78 809.37L708.78 809.96L709.47 810.06L713.73 810.65L714.61 810.77L719.03 811.34H719.45L723.72 811.85L724.52 811.94L729.05 812.44L730.05 812.54L734.79 813.02H735.11L739.79 813.45L740.65 813.53L745.51 813.94L746.51 814.02L751.63 814.4H751.83L756.93 814.74L757.93 814.8L763.14 815.11L764.14 815.17L769.68 815.46C771.28 815.54 772.88 815.6 774.47 815.64H775.04H776.04H779.25H784H785.9L788.76 815.57L790.62 815.51L793.56 815.37L794.77 815.31H795.29L798.69 815.08H799.21H799.89C801.41 814.96 802.89 814.83 804.42 814.68L805.74 814.54C806.81 814.43 807.89 814.32 808.96 814.19L810.74 813.97L813.46 813.62L815.37 813.35L817.95 812.96L819.88 812.65L822.43 812.22L822.88 812.14L824.32 811.89L826.99 811.38L827.99 811.19L828.73 811.05L832.24 810.31L834.09 809.9L837.24 809.17L837.97 808.99L839.12 808.71L841.53 808.11L842.65 807.81L843.55 807.57L845.79 806.97L847.85 806.39L850.02 805.76L852.09 805.14L854.24 804.48L854.84 804.29L856.3 803.83L858.49 803.11L859.18 802.88L860.72 802.37C861.93 801.96 863.14 801.54 864.34 801.11L866.48 800.33L868.48 799.62L868.85 799.48L870.68 798.79L872.55 798.07L874.78 797.19L876.58 796.47L876.95 796.32L878.83 795.55L880.57 794.82L882.25 794.11L882.86 793.85L884.46 793.15L886.46 792.26L886.83 792.1L887.83 791.64C889.63 790.83 891.43 789.99 893.22 789.15L894.33 788.63L895.26 788.18L896.78 787.44L897.88 786.9C895.72 780.99 891.3 769.32 886.68 759.22L885.68 757.08C885.54 756.79 885.41 756.51 885.27 756.23C884.97 755.59 884.66 754.97 884.36 754.36L884.15 753.93C882.63 750.752 880.86 747.693 878.88 744.78C878.88 744.78 892.61 757.64 899.88 774.56C896.79 764.23 887.36 733.56 879.2 716.07C888.46 731.171 896.12 747.198 902.05 763.89C899.55 748.748 898.39 733.416 898.57 718.07C899.57 729.4 902.42 745.78 904.84 758.36C904.84 757.36 904.84 756.29 904.78 755.26C904.78 754.93 904.78 754.6 904.78 754.26C904.78 753.56 904.78 752.85 904.78 752.16C904.78 751.79 904.78 751.42 904.78 751.05C904.78 750.39 904.78 749.74 904.78 749.05V747.94C904.78 747.25 904.78 746.57 904.78 745.89C904.78 745.59 904.78 745.28 904.78 744.98C904.78 742.98 904.84 741.07 904.88 739.17C904.88 738.91 904.88 738.65 904.88 738.38C904.88 737.69 904.88 737 904.94 736.38V735.47C904.94 734.83 904.99 734.19 905.01 733.56C905.01 733.27 905.01 732.97 905.01 732.68L905.1 730.68V729.99C905.19 728.2 905.28 726.45 905.38 724.76V724.25C905.38 723.58 905.46 722.92 905.51 722.25C905.51 722.02 905.51 721.79 905.51 721.56L905.63 719.8C905.63 719.57 905.63 719.35 905.63 719.12C905.63 718.51 905.72 717.92 905.77 717.33C905.77 717.16 905.77 716.99 905.77 716.83C905.89 715.3 906.02 713.83 906.15 712.41V712.12C906.15 711.53 906.26 710.95 906.31 710.38C906.31 710.21 906.31 710.04 906.31 709.88C906.31 709.38 906.41 708.88 906.46 708.42C906.46 708.25 906.46 708.08 906.46 707.92C906.51 707.427 906.56 706.947 906.61 706.48C906.61 706.35 906.61 706.23 906.61 706.1C906.67 705.55 906.73 705.01 906.79 704.49C906.79 704.49 906.79 704.42 906.79 704.38C906.85 703.82 906.91 703.29 906.97 702.77C906.97 702.65 906.97 702.54 906.97 702.42C907.02 702.03 907.06 701.65 907.1 701.29L907.16 700.83C907.16 700.53 907.23 700.23 907.27 699.94L907.33 699.45L907.42 698.71L907.48 698.22C907.48 698.01 907.53 697.82 907.56 697.63C907.56 697.23 907.66 696.85 907.71 696.51V696.3C907.71 696.08 907.77 695.88 907.8 695.68C907.8 695.68 907.8 695.59 907.8 695.55C890 695.21 870.5 693.89 849.51 691.81Z" fill="#157075"/>
<path d="M219.19 665.6C222.057 671.384 224.549 677.346 226.65 683.45C225.19 673.76 223.19 661.97 220.95 653.19C148.85 657.19 112.11 661.61 88.6399 665.96L105.9 735.59C108.9 734.04 105.9 735.59 109.24 734.01L109.36 733.95L109.62 733.83L112.38 732.52L112.56 732.43L112.92 732.26C115.57 731.02 118.32 729.79 121.18 728.55C121.36 728.47 121.53 728.39 121.72 728.32L122.21 728.11C123.21 727.69 124.21 727.27 125.21 726.86L125.52 726.73L125.74 726.64C127.46 725.927 129.213 725.217 131 724.51L131.24 724.41L131.46 724.33L134.62 723.1L134.95 722.97L135.56 722.74L135.96 722.59C138.92 721.47 141.967 720.37 145.1 719.29L146 719L146.25 718.91C147.49 718.48 148.75 718.06 150.02 717.64L150.68 717.42L150.89 717.35C152.55 716.81 154.24 716.27 155.89 715.74L156.89 715.42H156.99L160.68 714.31H160.78L162.04 713.94H162.09C163.71 713.47 165.34 713.01 167 712.55L167.23 712.49L167.91 712.31L168.31 712.2L172.31 711.14L172.57 711.07L173.64 710.8C175.57 710.31 177.52 709.8 179.49 709.35H179.57L179.82 709.29C181.41 708.91 183.02 708.54 184.64 708.18L185.21 708.05L186.16 707.84L186.37 707.79L190.81 706.84H190.99H191.16C193.3 706.4 195.467 705.973 197.66 705.56L198.43 705.41L199.33 705.25L203.76 704.46L204.52 704.33L205.25 704.21C207.51 703.83 209.79 703.47 212.11 703.13H212.36H212.68C214.29 702.89 215.92 702.66 217.55 702.44L218.3 702.33H218.66L219.47 702.23C221.36 701.98 223.26 701.75 225.18 701.52L225.77 701.45H222.9C222.9 701.45 215.43 687.32 208.7 679.7C214.364 684.497 219.404 689.987 223.7 696.04C220.16 687.91 213.19 672.46 207.28 662.85C214.981 672.752 221.618 683.437 227.08 694.73C225.33 686.61 222.2 673.79 219.19 665.6Z" fill="#157075"/>
<g opacity="0.3">
<path opacity="0.3" d="M908.42 696C907.86 710.17 908.42 729.09 909.15 745.07C910.07 729.933 912.16 714.889 915.38 700.07C913.97 713.91 913.88 733.49 914.14 749.32C915.74 739.746 917.96 730.286 920.79 721C918.35 733.9 916.88 753.69 916.17 765.69C921.48 747.585 928.68 730.088 937.65 713.49C931.28 729.16 924.78 753.73 921.54 766.7C928.54 751.59 939.7 738.85 939.7 738.85C933.03 749.54 926.7 766.93 924.7 772.69L925.28 772.35C926.34 771.72 927.39 771.1 928.44 770.46L928.69 770.31C936.11 765.83 943.44 761.163 950.69 756.31L950.87 756.19C952 755.43 953.12 754.68 954.24 753.91L954.62 753.65L957.9 751.41L958.34 751.11L961.58 748.86L962.04 748.54L965.29 746.25L965.67 745.98L969.02 743.6L969.23 743.45C993.31 726.23 1016.75 707.67 1040.23 689.79C1010 694.55 966.27 698.33 908.42 696Z" fill="#CCFCCB"/>
<path opacity="0.3" d="M849.51 691.81C683 675.3 599.8 588.64 498.92 593.93C398.61 599.19 347.2 645.71 226.27 652.83C229.582 664.602 232.124 676.578 233.88 688.68C234.09 680.16 234.18 669.1 233.58 661.56C235.381 671.607 236.294 681.793 236.31 692C238.372 680.401 241.64 669.05 246.06 658.13C242.62 670.53 239.79 691.65 238.9 698.75C241.82 686.86 249.42 676.92 249.42 676.92C246.03 683.8 243.23 695.47 242.3 699.63C243.3 699.55 244.38 699.48 245.42 699.42C246.01 699.42 246.58 699.33 247.17 699.3L248.88 699.2L249.96 699.14L251.88 699.04L254.42 698.91L256.11 698.83L257.75 698.78L260.3 698.7L263.3 698.6H263.66C264.31 698.6 264.98 698.6 265.66 698.6H268.75H270.53H278.31H280H281.61L285.69 698.69H287.5H288.6H289.6L294.35 698.88H295.12H296.12H297.17H297.48L303.14 699.21H303.52L305.14 699.31H305.52C307.68 699.46 309.86 699.63 312.04 699.82L312.98 699.89L313.98 699.98C319.353 700.453 324.803 701.027 330.33 701.7L331.52 701.84L332.11 701.92C334.57 702.233 337.04 702.567 339.52 702.92H339.71L340.28 703C346.32 703.86 352.45 704.86 358.67 706L359.19 706.09L359.8 706.21C369.04 707.89 378.477 709.867 388.11 712.14L393.19 713.35L394.81 713.74L398.19 714.56L400.19 715.04L403.19 715.77L405.25 716.28L408.05 716.98L410.12 717.5L412.81 718.18L414.94 718.72L417.51 719.38L419.64 719.93L422.15 720.58L424.23 721.12L426.73 721.78L428.73 722.32L431.21 722.98L433.21 723.51L435.67 724.17L437.67 724.7L440.07 725.36L442.01 725.89L444.38 726.55L446.27 727.08L448.65 727.75L450.46 728.26L452.89 728.95L454.58 729.43L457.2 730.19L458.65 730.61L462.47 731.73H462.64L466.95 733.01L468.32 733.42L471.27 734.31L472.8 734.78L475.64 735.65L477.04 736.08L481.04 737.3H481.17L486.35 738.93L487.35 739.26L492.26 740.84L493.26 741.16L498.07 742.73L498.28 742.8L503.13 744.41L504.13 744.73L508.74 746.29L509.59 746.58L514 748.09L514.34 748.21L518.83 749.77L519.78 750.1L524.06 751.61L524.85 751.89L528.91 753.34L529.31 753.48L533.53 755.01L534.4 755.33L538.46 756.82L539.13 757.07L542.9 758.47L543.41 758.66L547.33 760.13L548.19 760.45L552 761.89L552.6 762.12L556.19 763.49L556.67 763.67L560.4 765.1L561.22 765.42L564.83 766.81L565.39 767.03L568.9 768.39L569.22 768.52L572.91 769.95L573.65 770.24L577.06 771.57L580.74 773L581.26 773.2L584.72 774.55L585.38 774.81L588.89 776.17L589.18 776.28L592.43 777.54L593.01 777.76L596.32 779.03L596.99 779.29L600.37 780.58L600.63 780.68L603.8 781.88L604.42 782.11L607.67 783.32L608.32 783.56L611.65 784.79L611.82 784.85L615.04 786.02L615.64 786.24L618.88 787.4L619.51 787.62C621.743 788.407 623.977 789.183 626.21 789.95L626.85 790.17L630.1 791.27L630.7 791.47C631.79 791.83 632.89 792.2 633.99 792.55H634.12L637.47 793.62L638.15 793.84C639.24 794.18 640.33 794.53 641.43 794.84L642.04 795.03L645.31 796.03L645.53 796.09L648.94 797.09L649.64 797.29L653.02 798.29L653.59 798.45L656.91 799.36L657.23 799.45L660.74 800.38L661.46 800.57L664.98 801.46L665.54 801.6L668.94 802.43L669.36 802.53C670.56 802.82 671.78 803.1 673 803.37L673.75 803.54C674.97 803.81 676.19 804.09 677.42 804.35L677.98 804.47L681.53 805.22L682.02 805.32L685.82 806.08L686.63 806.24L690.5 806.97L691.02 807.06L694.77 807.73L695.35 807.83L699.35 808.51L700.19 808.65L704.32 809.3L704.78 809.37L708.78 809.96L709.47 810.06L713.73 810.65L714.61 810.77L719.03 811.34H719.45L723.72 811.85L724.52 811.94L729.05 812.44L730.05 812.54L734.79 813.02H735.11L739.79 813.45L740.65 813.53L745.51 813.94L746.51 814.02L751.63 814.4H751.83L756.93 814.74L757.93 814.8L763.14 815.11L764.14 815.17L769.68 815.46C771.28 815.54 772.88 815.6 774.47 815.64H775.04H776.04H779.25H784H785.9L788.76 815.57L790.62 815.51L793.56 815.37L794.77 815.31H795.29L798.69 815.08H799.21H799.89C801.41 814.96 802.89 814.83 804.42 814.68L805.74 814.54C806.81 814.43 807.89 814.32 808.96 814.19L810.74 813.97L813.46 813.62L815.37 813.35L817.95 812.96L819.88 812.65L822.43 812.22L822.88 812.14L824.32 811.89L826.99 811.38L827.99 811.19L828.73 811.05L832.24 810.31L834.09 809.9L837.24 809.17L837.97 808.99L839.12 808.71L841.53 808.11L842.65 807.81L843.55 807.57L845.79 806.97L847.85 806.39L850.02 805.76L852.09 805.14L854.24 804.48L854.84 804.29L856.3 803.83L858.49 803.11L859.18 802.88L860.72 802.37C861.93 801.96 863.14 801.54 864.34 801.11L866.48 800.33L868.48 799.62L868.85 799.48L870.68 798.79L872.55 798.07L874.78 797.19L876.58 796.47L876.95 796.32L878.83 795.55L880.57 794.82L882.25 794.11L882.86 793.85L884.46 793.15L886.46 792.26L886.83 792.1L887.83 791.64C889.63 790.83 891.43 789.99 893.22 789.15L894.33 788.63L895.26 788.18L896.78 787.44L897.88 786.9C895.72 780.99 891.3 769.32 886.68 759.22L885.68 757.08C885.54 756.79 885.41 756.51 885.27 756.23C884.97 755.59 884.66 754.97 884.36 754.36L884.15 753.93C882.63 750.752 880.86 747.693 878.88 744.78C878.88 744.78 892.61 757.64 899.88 774.56C896.79 764.23 887.36 733.56 879.2 716.07C888.46 731.171 896.12 747.198 902.05 763.89C899.55 748.748 898.39 733.416 898.57 718.07C899.57 729.4 902.42 745.78 904.84 758.36C904.84 757.36 904.84 756.29 904.78 755.26C904.78 754.93 904.78 754.6 904.78 754.26C904.78 753.56 904.78 752.85 904.78 752.16C904.78 751.79 904.78 751.42 904.78 751.05C904.78 750.39 904.78 749.74 904.78 749.05V747.94C904.78 747.25 904.78 746.57 904.78 745.89C904.78 745.59 904.78 745.28 904.78 744.98C904.78 742.98 904.84 741.07 904.88 739.17C904.88 738.91 904.88 738.65 904.88 738.38C904.88 737.69 904.88 737 904.94 736.38V735.47C904.94 734.83 904.99 734.19 905.01 733.56C905.01 733.27 905.01 732.97 905.01 732.68L905.1 730.68V729.99C905.19 728.2 905.28 726.45 905.38 724.76V724.25C905.38 723.58 905.46 722.92 905.51 722.25C905.51 722.02 905.51 721.79 905.51 721.56L905.63 719.8C905.63 719.57 905.63 719.35 905.63 719.12C905.63 718.51 905.72 717.92 905.77 717.33C905.77 717.16 905.77 716.99 905.77 716.83C905.89 715.3 906.02 713.83 906.15 712.41V712.12C906.15 711.53 906.26 710.95 906.31 710.38C906.31 710.21 906.31 710.04 906.31 709.88C906.31 709.38 906.41 708.88 906.46 708.42C906.46 708.25 906.46 708.08 906.46 707.92C906.51 707.427 906.56 706.947 906.61 706.48C906.61 706.35 906.61 706.23 906.61 706.1C906.67 705.55 906.73 705.01 906.79 704.49C906.79 704.49 906.79 704.42 906.79 704.38C906.85 703.82 906.91 703.29 906.97 702.77C906.97 702.65 906.97 702.54 906.97 702.42C907.02 702.03 907.06 701.65 907.1 701.29L907.16 700.83C907.16 700.53 907.23 700.23 907.27 699.94L907.33 699.45L907.42 698.71L907.48 698.22C907.48 698.01 907.53 697.82 907.56 697.63C907.56 697.23 907.66 696.85 907.71 696.51V696.3C907.71 696.08 907.77 695.88 907.8 695.68C907.8 695.68 907.8 695.59 907.8 695.55C890 695.21 870.5 693.89 849.51 691.81Z" fill="#CCFCCB"/>
<path opacity="0.3" d="M219.19 665.6C222.057 671.384 224.549 677.346 226.65 683.45C225.19 673.76 223.19 661.97 220.95 653.19C148.85 657.19 112.11 661.61 88.6399 665.96L105.9 735.59C108.9 734.04 105.9 735.59 109.24 734.01L109.36 733.95L109.62 733.83L112.38 732.52L112.56 732.43L112.92 732.26C115.57 731.02 118.32 729.79 121.18 728.55C121.36 728.47 121.53 728.39 121.72 728.32L122.21 728.11C123.21 727.69 124.21 727.27 125.21 726.86L125.52 726.73L125.74 726.64C127.46 725.927 129.213 725.217 131 724.51L131.24 724.41L131.46 724.33L134.62 723.1L134.95 722.97L135.56 722.74L135.96 722.59C138.92 721.47 141.967 720.37 145.1 719.29L146 719L146.25 718.91C147.49 718.48 148.75 718.06 150.02 717.64L150.68 717.42L150.89 717.35C152.55 716.81 154.24 716.27 155.89 715.74L156.89 715.42H156.99L160.68 714.31H160.78L162.04 713.94H162.09C163.71 713.47 165.34 713.01 167 712.55L167.23 712.49L167.91 712.31L168.31 712.2L172.31 711.14L172.57 711.07L173.64 710.8C175.57 710.31 177.52 709.8 179.49 709.35H179.57L179.82 709.29C181.41 708.91 183.02 708.54 184.64 708.18L185.21 708.05L186.16 707.84L186.37 707.79L190.81 706.84H190.99H191.16C193.3 706.4 195.467 705.973 197.66 705.56L198.43 705.41L199.33 705.25L203.76 704.46L204.52 704.33L205.25 704.21C207.51 703.83 209.79 703.47 212.11 703.13H212.36H212.68C214.29 702.89 215.92 702.66 217.55 702.44L218.3 702.33H218.66L219.47 702.23C221.36 701.98 223.26 701.75 225.18 701.52L225.77 701.45H222.9C222.9 701.45 215.43 687.32 208.7 679.7C214.364 684.497 219.404 689.987 223.7 696.04C220.16 687.91 213.19 672.46 207.28 662.85C214.981 672.752 221.618 683.437 227.08 694.73C225.33 686.61 222.2 673.79 219.19 665.6Z" fill="#CCFCCB"/>
</g>
<path d="M1235.75 549.89C1234.47 549.89 1233.63 551.38 1233.94 554.78C1234.25 558.18 1233.58 564.02 1233.58 566.04C1233.58 568.06 1233.73 569.12 1232.35 569.12C1230.97 569.12 1230.44 568.48 1230.44 566.57C1230.44 564.66 1230.01 532.14 1230.01 527.35C1230.01 522.56 1227.01 523.21 1225.87 523.21C1224.73 523.21 1224.38 526.29 1224.38 528.31C1224.38 530.33 1224.49 562.11 1224.49 564.31C1224.49 566.51 1223.49 567.18 1222.15 567.18C1221.24 567.108 1220.38 566.698 1219.76 566.03C1219.13 565.363 1218.77 564.486 1218.76 563.57C1218.76 561.34 1218.54 521.42 1218.76 514.08C1218.98 506.74 1215.25 507.17 1213.13 507.39C1211.01 507.61 1209.62 509.2 1209.62 514.62C1209.62 519.8 1210.2 559.7 1210.44 567.3C1210.49 568.201 1210.2 569.089 1209.62 569.78C1207.33 572.33 1202.03 570.78 1202.18 568.14C1201.76 565.7 1201.4 544.51 1201.18 540.26C1200.91 533.83 1198.52 533.26 1196.18 533.88C1193.84 534.5 1192.25 537.28 1192.35 540.47C1192.45 543.66 1193.52 570.8 1193.94 573.24C1194.36 575.68 1195.53 578.45 1199.57 578.87C1203.64 579.116 1207.72 579.153 1211.79 578.98L1212.46 597.57L1220.66 595.15L1219.66 578.66C1219.66 578.66 1221.04 577.81 1225.93 577.49C1230.82 577.17 1237.19 576.96 1237.83 574.83C1238.47 572.7 1238.83 561.23 1238.83 555.83C1238.83 550.43 1237 549.89 1235.75 549.89Z" fill="#7A5C61"/>
<path d="M1329.88 577.62C1296.4 577.92 1237.63 584.62 1157.65 617.13C1074.87 650.8 1005.46 725.01 924.65 772.72C926.65 766.96 932.99 749.57 939.65 738.88C939.65 738.88 928.47 751.63 921.49 766.73C924.73 753.73 931.23 729.19 937.6 713.52C928.63 730.118 921.43 747.615 916.12 765.72C916.83 753.72 918.3 733.93 920.74 721.03C917.91 730.316 915.69 739.776 914.09 749.35C913.84 733.52 913.92 713.94 915.33 700.1C912.11 714.919 910.03 729.963 909.1 745.1C908.32 728.25 907.74 708.1 908.45 693.73C905.36 715.278 904.08 737.048 904.62 758.81C902.2 746.23 899.33 729.86 898.35 718.52C898.17 733.866 899.33 749.198 901.83 764.34C895.91 747.648 888.26 731.621 879 716.52C887.16 734.05 896.59 764.68 899.68 775.01C892.4 758.09 878.68 745.23 878.68 745.23C885.28 754.42 894.27 778.05 897.68 787.35C858.81 806.47 816.9 818.26 769.46 815.98C608.87 808.25 599.46 762.5 388.04 712.39C332.75 699.29 284.04 696.55 242.26 699.62C243.2 695.45 246 683.79 249.38 676.91C249.38 676.91 241.78 686.85 238.86 698.74C239.76 691.64 242.58 670.51 246.02 658.12C241.602 669.043 238.338 680.398 236.28 692C236.264 681.796 235.35 671.614 233.55 661.57C234.15 669.12 234.06 680.18 233.85 688.69C231.821 674.353 228.596 660.21 224.21 646.41C226.21 655.77 228.07 669.04 229.41 680.17C227.153 670.344 224.144 660.705 220.41 651.34C222.85 660.26 225.05 673.09 226.62 683.51C224.519 677.406 222.027 671.444 219.16 665.66C222.16 673.85 225.3 686.66 227.08 694.46C221.614 683.17 214.977 672.485 207.28 662.58C213.19 672.19 220.16 687.64 223.7 695.77C219.407 689.714 214.367 684.224 208.7 679.43C215.42 687.04 222.9 701.18 222.9 701.18H225.77C169.66 707.59 133.45 721.18 105.77 735.7L142.19 883H1102.65L1323.26 657.8C1330.16 650.753 1335.08 642.006 1337.52 632.447C1339.96 622.887 1339.83 612.853 1337.14 603.36L1329.88 577.62Z" fill="#157075"/>
<path opacity="0.4" d="M1329.88 577.62C1296.4 577.92 1237.63 584.62 1157.65 617.13C1074.87 650.8 1005.46 725.01 924.65 772.72C926.65 766.96 932.99 749.57 939.65 738.88C939.65 738.88 928.47 751.63 921.49 766.73C924.73 753.73 931.23 729.19 937.6 713.52C928.63 730.118 921.43 747.615 916.12 765.72C916.83 753.72 918.3 733.93 920.74 721.03C917.91 730.316 915.69 739.776 914.09 749.35C913.84 733.52 913.92 713.94 915.33 700.1C912.11 714.919 910.03 729.963 909.1 745.1C908.32 728.25 907.74 708.1 908.45 693.73C905.36 715.278 904.08 737.048 904.62 758.81C902.2 746.23 899.33 729.86 898.35 718.52C898.17 733.866 899.33 749.198 901.83 764.34C895.91 747.648 888.26 731.621 879 716.52C887.16 734.05 896.59 764.68 899.68 775.01C892.4 758.09 878.68 745.23 878.68 745.23C885.28 754.42 894.27 778.05 897.68 787.35C858.81 806.47 816.9 818.26 769.46 815.98C608.87 808.25 599.46 762.5 388.04 712.39C332.75 699.29 284.04 696.55 242.26 699.62C243.2 695.45 246 683.79 249.38 676.91C249.38 676.91 241.78 686.85 238.86 698.74C239.76 691.64 242.58 670.51 246.02 658.12C241.602 669.043 238.338 680.398 236.28 692C236.264 681.796 235.35 671.614 233.55 661.57C234.15 669.12 234.06 680.18 233.85 688.69C231.821 674.353 228.596 660.21 224.21 646.41C226.21 655.77 228.07 669.04 229.41 680.17C227.153 670.344 224.144 660.705 220.41 651.34C222.85 660.26 225.05 673.09 226.62 683.51C224.519 677.406 222.027 671.444 219.16 665.66C222.16 673.85 225.3 686.66 227.08 694.46C221.614 683.17 214.977 672.485 207.28 662.58C213.19 672.19 220.16 687.64 223.7 695.77C219.407 689.714 214.367 684.224 208.7 679.43C215.42 687.04 222.9 701.18 222.9 701.18H225.77C169.66 707.59 133.45 721.18 105.77 735.7L142.19 883H1102.65L1323.26 657.8C1330.16 650.753 1335.08 642.006 1337.52 632.447C1339.96 622.887 1339.83 612.853 1337.14 603.36L1329.88 577.62Z" fill="#CCFCCB"/>
<path d="M376 318C397.495 317.994 418.506 311.614 436.375 299.667C454.245 287.719 468.17 270.742 476.39 250.88C484.61 231.018 486.755 209.165 482.555 188.084C478.355 167.004 467.998 147.641 452.794 132.447C437.589 117.252 418.221 106.908 397.137 102.721C376.053 98.535 354.202 100.694 334.345 108.927C314.489 117.16 297.52 131.096 285.584 148.973C273.649 166.85 267.282 187.865 267.29 209.36C267.301 238.182 278.76 265.819 299.146 286.193C319.533 306.567 347.178 318.008 376 318Z" fill="#FFC183"/>
<path d="M330.84 672.07C328.09 672.07 326.5 673.3 326.5 681.78C326.5 690.48 327.65 756.87 327.65 763.51C327.65 770.15 328.08 774.04 324.65 774.04C321.22 774.04 320.38 771.89 320.38 767.8V719.18C320.38 714.63 319.77 712.93 317.45 712.93C315.13 712.93 313.19 713.38 313.19 717.43C313.19 721.48 313.97 739.9 313.97 743.43C313.97 746.96 314.18 748.5 311.41 748.5C308.64 748.5 307.57 747.33 307.57 743.62V626.51C307.57 624.07 306.28 621.62 303.17 621.62C300.06 621.62 299.81 623.55 299.81 626.96C299.81 630.37 299.39 729.87 299.39 742.62C299.39 755.37 300.31 759.1 309.05 760.79V785C309.05 785 309.05 792 303.52 791.44C297.99 790.88 293.28 790 293.28 775.2C293.28 760.4 293.99 680.83 293.99 676.15C293.99 671.47 293.71 669.26 290.55 669.26C287.39 669.26 285.3 671.44 285.3 677.94V787.1C285.3 795.55 289.98 805.57 308.08 807.1V883.1H330.86V804.8C330.86 804.8 352.95 804.41 352.95 791.8V707.71C352.95 703.31 351.66 701.92 348.87 701.92C346.08 701.92 343.8 703.54 343.8 707.92V777.56C343.8 781.04 343.17 783.12 341.26 783.12C339.35 783.12 336.69 783.93 336.69 776.98V678.38C336.66 674.68 334.24 672.07 330.84 672.07Z" fill="#7A5C61"/>
<path opacity="0.2" d="M1032.77 695.5C1032.7 695.548 1032.63 695.601 1032.57 695.66C1032.63 695.601 1032.7 695.548 1032.77 695.5Z" fill="black"/>
<path opacity="0.2" d="M1036.55 692.61L1036.45 692.68L1036.55 692.61Z" fill="black"/>
<path d="M508.28 721.31L514.8 710.48L495.71 649.81L454.55 775.2L462.97 780.15L473.05 879.05H503.05L484.41 863.05L479.31 779.72C480.874 779.215 482.269 778.291 483.345 777.049C484.421 775.807 485.136 774.294 485.413 772.674C485.69 771.055 485.519 769.39 484.917 767.861C484.315 766.332 483.307 764.997 482 764L500.49 722.66L508.28 721.31Z" fill="#803155"/>
<path d="M731.78 717.7L696 706.1L687.58 786.87L691.79 793.66L683.72 879.05H712.32L699.5 867.31L712.61 795.89H712.87C714.451 795.902 716.006 795.497 717.381 794.717C718.756 793.936 719.9 792.807 720.7 791.444C721.5 790.081 721.927 788.531 721.937 786.95C721.948 785.369 721.542 783.814 720.76 782.44L731.78 717.7Z" fill="#803155"/>
<path opacity="0.2" d="M731.78 717.7L696 706.1L687.58 786.87L691.79 793.66L683.72 879.05H712.32L699.5 867.31L712.61 795.89H712.87C714.451 795.902 716.006 795.497 717.381 794.717C718.756 793.936 719.9 792.807 720.7 791.444C721.5 790.081 721.927 788.531 721.937 786.95C721.948 785.369 721.542 783.814 720.76 782.44L731.78 717.7Z" fill="#7A5C61"/>
<path opacity="0.2" d="M463.11 775.2L499.9 663.12L495.71 649.82L454.55 775.2L462.98 780.15L473.05 879.05H481.61L471.53 780.15L463.11 775.2Z" fill="white"/>
<path opacity="0.2" d="M696.12 786.87L704.26 708.78L696 706.1L687.58 786.87L691.79 793.66L683.72 879.05H692.27L700.34 793.66L696.12 786.87Z" fill="#7A5C61"/>
<path opacity="0.2" d="M508.28 721.31L514.8 710.48L495.71 649.81L454.55 775.2L462.97 780.15L473.05 879.05H503.05L484.41 863.05L479.31 779.72C480.874 779.215 482.269 778.291 483.345 777.049C484.421 775.807 485.136 774.294 485.413 772.674C485.69 771.055 485.519 769.39 484.917 767.861C484.315 766.332 483.307 764.997 482 764L500.49 722.66L508.28 721.31Z" fill="#7A5C61"/>
<path d="M939 496.62C934.87 488.01 944 478.53 924 479.39C904 480.25 901.78 476.98 883.86 474.05C865.94 471.12 859.05 480.77 859.05 480.77C859.05 480.77 845.37 474.36 844.28 484.04C843.961 486.832 844.36 489.66 845.43 492.256C846.51 494.852 848.23 497.132 850.43 498.88C837.25 520.37 825.67 600 825.67 600C771.04 604.2 755.43 571.78 673.18 552C590.93 532.22 548.74 549.09 509.71 590.39C470.68 631.69 456.16 717 456.16 717C464.5 681.72 487.31 639.6 487.31 639.6L532.55 792.83L539.09 797.03L566.09 883.16H602.65L576.49 872.66L563.33 788.55C565.241 787.806 566.841 786.431 567.865 784.654C568.889 782.876 569.274 780.802 568.958 778.776C568.642 776.749 567.643 774.891 566.126 773.51C564.61 772.128 562.667 771.306 560.62 771.18L553.32 724.52L559.97 717.21L555.91 658.21C555.91 658.21 675.44 731 713.53 714.82L737.89 790.82L743.36 794.72L776.65 873.85L775.32 883.13H811.75L786.36 866L765.06 786.8C765.978 785.928 766.706 784.875 767.198 783.709C767.69 782.542 767.936 781.286 767.92 780.02C767.975 778.269 767.5 776.542 766.558 775.065C765.616 773.588 764.251 772.429 762.64 771.74L760.37 685.51L778.97 668.11C826.15 675.78 860.82 658.54 872.53 630.6C884.24 602.66 877.82 589.82 884.99 559.23C892.16 528.64 904.75 521.55 904.75 521.55C922.84 523.29 921.57 516.61 921.57 516.61C926.16 517.69 930.65 518.14 934.19 517.24C946.44 514.19 943.17 505.23 939 496.62Z" fill="#803155"/>
<path opacity="0.2" d="M939 496.62C934.87 488.01 944 478.53 924 479.39C904 480.25 901.78 476.98 883.86 474.05C865.94 471.12 859.05 480.77 859.05 480.77C859.05 480.77 845.37 474.36 844.28 484.04C843.961 486.832 844.36 489.66 845.43 492.256C846.51 494.852 848.23 497.132 850.43 498.88C837.25 520.37 825.67 600 825.67 600C771.04 604.2 755.43 571.78 673.18 552C590.93 532.22 548.74 549.09 509.71 590.39C470.68 631.69 456.16 717 456.16 717C464.5 681.72 487.31 639.6 487.31 639.6L532.55 792.83L539.09 797.03L566.09 883.16H602.65L576.49 872.66L563.33 788.55C565.241 787.806 566.841 786.431 567.865 784.654C568.889 782.876 569.274 780.802 568.958 778.776C568.642 776.749 567.643 774.891 566.126 773.51C564.61 772.128 562.667 771.306 560.62 771.18L553.32 724.52L559.97 717.21L555.91 658.21C555.91 658.21 675.44 731 713.53 714.82L737.89 790.82L743.36 794.72L776.65 873.85L775.32 883.13H811.75L786.36 866L765.06 786.8C765.978 785.928 766.706 784.875 767.198 783.709C767.69 782.542 767.936 781.286 767.92 780.02C767.975 778.269 767.5 776.542 766.558 775.065C765.616 773.588 764.251 772.429 762.64 771.74L760.37 685.51L778.97 668.11C826.15 675.78 860.82 658.54 872.53 630.6C884.24 602.66 877.82 589.82 884.99 559.23C892.16 528.64 904.75 521.55 904.75 521.55C922.84 523.29 921.57 516.61 921.57 516.61C926.16 517.69 930.65 518.14 934.19 517.24C946.44 514.19 943.17 505.23 939 496.62Z" fill="#7A5C61"/>
<path opacity="0.4" d="M805.86 669.85C800.331 669.607 794.821 669.036 789.36 668.14L788.09 669.33C793.994 669.92 799.932 670.094 805.86 669.85Z" fill="white"/>
<path opacity="0.4" d="M867.44 482.85C867.44 482.85 873.32 475.38 882.74 473.85C867.11 471.98 861.08 478.72 859.13 480.74C862.01 480.933 864.82 481.648 867.44 482.85Z" fill="#7A5C61"/>
<path opacity="0.4" d="M930.09 479.51C928.1 479.319 926.09 479.278 924.09 479.39H923.57C925.47 479.51 927.64 479.55 930.09 479.51Z" fill="white"/>
<path opacity="0.4" d="M821.5 600.23C826.354 600.452 831.217 600.368 836.06 599.98C836.06 599.98 846.19 519.69 859.41 498.21C859.41 498.21 848.58 494.14 849.66 484.46C849.89 482.46 851.18 479.6 852.27 478.78C849.33 478.31 844.75 478.78 844.27 484.52C843.988 487.241 844.41 489.988 845.49 492.501C846.57 495.013 848.28 497.206 850.45 498.87C837.27 520.36 825.69 600 825.69 600C824.27 600.1 822.87 600.17 821.5 600.23Z" fill="#7A5C61"/>
<path opacity="0.4" d="M749.77 792.57L744.3 788.67L714.3 717.01L737.96 790.8L743.43 794.7L776.72 873.83L775.39 883.12H781.69L783.02 873.83L749.77 792.57Z" fill="#7A5C61"/>
<path opacity="0.4" d="M556.11 652.62L555.95 658.17C585.43 676.6 668.71 720.62 704.8 716.93C656.06 712.86 556.11 652.62 556.11 652.62Z" fill="#7A5C61"/>
<path opacity="0.4" d="M932 516.66C932.04 516.995 932.01 517.336 931.92 517.66C932.71 517.593 933.48 517.466 934.25 517.28L934.6 517.18C933.7 517 932.83 516.86 932 516.66Z" fill="white"/>
<path opacity="0.4" d="M519.24 587.84C545.09 558.56 575.24 545.09 617.06 543.76C569.46 542.47 538.71 559.67 509.72 590.34C470.72 631.64 456.17 716.95 456.17 716.95C464.51 681.67 487.32 639.55 487.32 639.55C494.967 620.636 505.759 603.153 519.24 587.84Z" fill="#7A5C61"/>
<path opacity="0.4" d="M538.43 788.3L491.14 652.47L532.57 792.79L539.11 796.99L566.11 883.12H572.28L545 792.51L538.43 788.3Z" fill="#7A5C61"/>
<path d="M897.12 509L905 478.49L895.08 476.28L893.08 509.19C891.85 509.726 890.85 510.676 890.24 511.875C889.64 513.074 889.48 514.447 889.78 515.753C890.09 517.06 890.84 518.219 891.91 519.029C892.98 519.839 894.3 520.248 895.64 520.186C896.98 520.123 898.26 519.593 899.25 518.688C900.24 517.783 900.88 516.559 901.06 515.23C901.24 513.9 900.95 512.549 900.24 511.411C899.53 510.273 898.44 509.42 897.17 509H897.12ZM895.41 515.94C895.13 515.94 894.85 515.856 894.62 515.699C894.38 515.542 894.2 515.319 894.09 515.057C893.98 514.796 893.95 514.508 894.01 514.231C894.06 513.954 894.2 513.699 894.4 513.499C894.6 513.299 894.85 513.163 895.13 513.107C895.41 513.052 895.7 513.081 895.96 513.189C896.22 513.297 896.44 513.48 896.6 513.716C896.76 513.951 896.84 514.227 896.84 514.51C896.84 514.888 896.69 515.249 896.42 515.515C896.15 515.781 895.79 515.93 895.41 515.93V515.94Z" fill="#6A8D92"/>
<path d="M842.81 518.07L862.52 521.07C867.08 521.759 871.74 521.022 875.86 518.96L890.35 511.7C889.69 513.011 889.52 514.515 889.87 515.94C890.15 517.15 890.86 518.217 891.87 518.94L874.87 526.87C871.03 528.662 866.75 529.278 862.56 528.64L840.75 525.33" fill="#6A8D92"/>
<path d="M887 496.13C887.43 496.13 887.86 496.002 888.22 495.761C888.58 495.52 888.86 495.178 889.02 494.778C889.19 494.378 889.23 493.938 889.15 493.513C889.06 493.088 888.85 492.698 888.55 492.391C888.24 492.085 887.85 491.877 887.43 491.792C887 491.708 886.56 491.751 886.16 491.917C885.76 492.082 885.42 492.363 885.18 492.723C884.94 493.083 884.81 493.507 884.81 493.94C884.81 494.521 885.04 495.078 885.45 495.489C885.86 495.899 886.42 496.13 887 496.13Z" fill="black"/>
<path d="M936.75 508.81C931.93 508.844 927.22 507.395 923.25 504.66L923.85 503.86C926.59 505.682 929.67 506.909 932.91 507.461C936.16 508.012 939.48 507.875 942.66 507.06L942.9 508.06C940.89 508.559 938.82 508.81 936.75 508.81Z" fill="black"/>
<path d="M938 493.27C938 493.27 933.07 491.94 932.76 493.73C932.45 495.52 932.7 497.02 939.03 496.62C938.77 496.005 938.53 495.378 938.33 494.74C938.19 494.18 938 493.27 938 493.27Z" fill="#803155"/>
<path opacity="0.15" d="M938 493.27C938 493.27 933.07 491.94 932.76 493.73C932.45 495.52 932.7 497.02 939.03 496.62C938.77 496.005 938.53 495.378 938.33 494.74C938.19 494.18 938 493.27 938 493.27Z" fill="black"/>
<path d="M590.34 519.38C587.547 519.379 584.865 520.469 582.864 522.417C580.864 524.366 579.703 527.018 579.63 529.81L576.52 640.81C576.52 640.81 629.01 632.54 650.8 631.62C672.59 630.7 721.71 644.82 774.5 626.71C774.5 626.71 768.43 579.99 760.39 546.39C760.41 546.37 704.84 513.85 590.34 519.38Z" fill="#282F4F"/>
<g opacity="0.4">
<path opacity="0.4" d="M738.6 540L726.55 539.83L726.72 533.12L725.66 532.8L725.48 539.8L713.43 539.63L713.68 529.57L712.62 529.31L712.36 539.62L700.31 539.45L700.61 527.45H704.61C702.81 527.057 700.963 526.673 699.07 526.3L687.52 526.14L687.57 524.21L686.5 524.04V526.13L674.4 526L674.49 522.58H673.42L673.33 526.02L661.28 525.85L661.39 521.64H660.32L660.21 525.86L648.16 525.69L648.28 520.69H647.21L647.08 525.69L635 525.46L635.14 519.68H634.07L633.93 525.47L621.88 525.3L622.04 518.76H620.97L620.81 525.3L608.76 525.13L608.92 518.79H607.85L607.69 525.1L595.99 524.94L596.14 519.1H595.07L594.93 524.88L581 524.7C580.803 525.043 580.627 525.397 580.47 525.76L594.9 525.96L594.6 537.96L579.36 537.75V538.82L594.6 539.03L594.3 551.03L579 550.9V551.97L594.28 552.18L593.98 564.18L578.68 564V565.07L594 565.28L593.7 577.28L578.35 577.07V578.14L593.71 578.35L593.41 590.35L578 590.23V591.3L593.4 591.51L593.1 603.51L577.67 603.3V604.37L593.1 604.58L592.8 616.58L577.33 616.37V617.44L592.8 617.65L592.5 629.65L576.99 629.44V630.51L592.5 630.72L592.31 638.28L593.39 638.12L593.57 630.73L605.27 630.89L605.13 636.45L606.2 636.3L606.33 630.9L618.38 631.07L618.29 634.7L619.36 634.56L619.45 631.08L631.5 631.25L631.45 633.12L632.52 633V631.27L644.57 631.44V632L645.64 631.92V631.61H649.64L650.96 631.55C653.732 631.469 656.506 631.536 659.27 631.75L670.83 631.91V632.81L671.9 632.92V631.92L683.9 632.09V634.19L684.97 634.3V632.11L696.97 632.28L696.89 635.28L697.96 635.35L698.04 632.27L710.04 632.44L709.95 635.87H711.02L711.11 632.44L723.11 632.61L723.03 635.76L724.1 635.71L724.18 632.62L736.18 632.79V634.88L737.25 634.76L737.3 632.76L749.3 632.93V633.02C751.17 632.69 753.05 632.34 754.94 631.94L750.4 631.88L750.7 619.88L762.75 620.05L762.5 630.2L763.58 629.92L763.83 620.07L773.55 620.2C773.55 619.85 773.45 619.5 773.4 619.13L763.85 619L764.15 607L771.62 607.1C771.57 606.75 771.51 606.39 771.46 606.03L764.18 605.93L764.48 593.93L769.55 594L769.37 592.93L764.5 592.86L764.8 580.86H767.31C767.25 580.5 767.18 580.14 767.12 579.79H764.83L765.1 568.92C764.79 567.3 764.47 565.69 764.1 564.08L764.04 566.67L751.99 566.5L752.29 554.5L762.12 554.63L761.88 553.56L752.31 553.43L752.58 542.69L751.52 542.22L751.24 553.41L739.24 553.24L739.54 541.24L749.54 541.38C748.69 541.02 747.8 540.65 746.85 540.27L739.57 540.17L739.64 537.53L738.58 537.15L738.6 540ZM726.53 540.91L738.58 541.08L738.28 553.08L726.28 552.91L726.53 540.91ZM726.2 554L738.2 554.17L737.9 566.17L725.85 566L726.2 554ZM725.87 567.11L737.87 567.28L737.57 579.28L725.57 579.11L725.87 567.11ZM713.41 540.72L725.46 540.89L725.16 552.89L713.16 552.72L713.41 540.72ZM713.08 553.82L725.08 553.99L724.78 565.99L712.73 565.82L713.08 553.82ZM712.75 567L724.75 567.17L724.45 579.17L712.45 579L712.75 567ZM700.29 540.61L712.34 540.78L712.04 552.78L700.04 552.61L700.29 540.61ZM699.96 553.71L711.96 553.88L711.66 565.88L699.61 565.71L699.96 553.71ZM711.68 567L711.38 579L699.38 578.83L699.68 566.83L711.68 567ZM687.5 527.29L699.5 527.46L699.2 539.46L687.2 539.29L687.5 527.29ZM687.17 540.4L699.22 540.57L698.92 552.57L686.92 552.4L687.17 540.4ZM686.85 553.5L698.85 553.67L698.55 565.67L686.5 565.5L686.85 553.5ZM686.52 566.61L698.57 566.78L698.27 578.78L686.27 578.61L686.52 566.61ZM674.38 527.11L686.38 527.28L686.08 539.28L674.08 539.11L674.38 527.11ZM674.05 540.22L686.1 540.39L685.8 552.39L673.8 552.22L674.05 540.22ZM673.73 553.32L685.73 553.49L685.43 565.49L673.38 565.32L673.73 553.32ZM673.4 566.43L685.45 566.6L685.15 578.6L673.15 578.43L673.4 566.43ZM661.26 526.93L673.26 527.1L672.96 539.1L661 539L661.26 526.93ZM660.94 540L672.94 540.17L672.64 552.17L660.59 552L660.94 540ZM660.61 553.11L672.61 553.28L672.31 565.28L660.26 565.11L660.61 553.11ZM660.28 566.21L672.33 566.38L672.03 578.38L660.03 578.21L660.28 566.21ZM648.15 526.71L660.2 526.88L659.9 538.88L647.9 538.71L648.15 526.71ZM647.82 539.82L659.82 539.99L659.52 551.99L647.47 551.82L647.82 539.82ZM647.49 553L659.49 553.17L659.19 565.17L647.19 564.99L647.49 553ZM647.16 566.1L659.21 566.27L658.91 578.27L646.91 578.1L647.16 566.1ZM635 526.57L647.05 526.74L646.75 538.74L634.75 538.57L635 526.57ZM634.67 539.68L646.67 539.85L646.37 551.85L634.32 551.68L634.67 539.68ZM634.34 552.79L646.34 552.96L646.04 564.96L634.04 564.79L634.34 552.79ZM634.02 565.89L646.07 566.06L645.77 578.06L633.77 577.89L634.02 565.89ZM621.88 526.39L633.93 526.56L633.63 538.56L621.63 538.39L621.88 526.39ZM621.55 539.5L633.55 539.67L633.25 551.67L621.2 551.5L621.55 539.5ZM621.23 552.61L633.23 552.78L632.93 564.78L620.93 564.61L621.23 552.61ZM620.9 565.71L632.95 565.88L632.65 577.88L620.65 577.71L620.9 565.71ZM608.76 526.21L620.81 526.38L620.51 538.38L608.51 538.21L608.76 526.21ZM608.43 539.32L620.43 539.49L620.13 551.49L608.08 551.32L608.43 539.32ZM608.11 552.43L620.16 552.6L619.86 564.6L607.86 564.43L608.11 552.43ZM607.78 565.53L619.83 565.7L619.53 577.7L607.53 577.53L607.78 565.53ZM596 526L607.7 526.16L607.4 538.16L595.7 538L596 526ZM595.67 539.1L607.37 539.26L607.07 551.26L595.37 551.1L595.67 539.1ZM595.34 552.21L607.04 552.37L606.74 564.37L595.04 564.21L595.34 552.21ZM595 565.36L606.7 565.52L606.4 577.52L594.7 577.36L595 565.36ZM605.13 630L593.43 629.84L593.73 617.84L605.43 618L605.13 630ZM605.45 616.9L593.75 616.74L594.05 604.74L605.75 604.9L605.45 616.9ZM605.78 603.79L594.08 603.63L594.38 591.63L606.08 591.79L605.78 603.79ZM606.11 590.68L594.41 590.52L594.71 578.52L606.41 578.68L606.11 590.68ZM618.24 630.18L606.24 630.02L606.54 618.02L618.54 618.19L618.24 630.18ZM618.57 617.08L606.52 616.91L606.82 604.91L618.82 605.08L618.57 617.08ZM618.9 604L606.9 603.83L607.2 591.83L619.25 592L618.9 604ZM619.23 590.89L607.18 590.72L607.48 578.72L619.48 578.89L619.23 590.89ZM631.36 630.39L619.31 630.22L619.61 618.22L631.61 618.39L631.36 630.39ZM631.69 617.29L619.64 617.12L619.94 605.12L631.94 605.29L631.69 617.29ZM632.02 604.18L620 604L620.3 592L632.35 592.17L632.02 604.18ZM632.35 591.07L620.3 590.9L620.6 578.9L632.6 579.07L632.35 591.07ZM644.48 630.57L632.43 630.4L632.73 618.4L644.73 618.57L644.48 630.57ZM644.81 617.47L632.81 617.3L633.11 605.3L645.16 605.47L644.81 617.47ZM645.14 604.36L633.14 604.19L633.44 592.19L645.49 592.36L645.14 604.36ZM645.46 591.25L633.41 591L633.71 579L645.71 579.17L645.46 591.25ZM657.6 630.75L645.55 630.58L645.85 618.58L657.85 618.75L657.6 630.75ZM657.93 617.65L645.93 617.48L646.23 605.48L658.28 605.65L657.93 617.65ZM658.25 604.54L646.25 604.37L646.55 592.37L658.55 592.54L658.25 604.54ZM646.53 591.27L646.83 579.27L658.83 579.44L658.53 591.44L646.53 591.27ZM670.72 630.93L658.67 630.76L658.97 618.76L670.97 618.93L670.72 630.93ZM671.05 617.83L659.05 617.66L659.35 605.66L671.4 605.83L671.05 617.83ZM671.37 604.72L659.37 604.55L659.67 592.55L671.67 592.72L671.37 604.72ZM671.7 591.61L659.65 591.44L659.95 579.44L671.95 579.61L671.7 591.61ZM683.84 631.11L671.79 630.94L672.09 618.94L684.09 619.11L683.84 631.11ZM684.16 618.01L672.16 617.84L672.46 605.84L684.51 606.01L684.16 618.01ZM684.49 604.9L672.49 604.73L672.79 592.73L684.79 592.9L684.49 604.9ZM684.82 591.79L672.77 591.62L673.07 579.62L685.07 579.79L684.82 591.79ZM697 631.24L684.95 631.07L685.25 619.07L697.25 619.24L697 631.24ZM697.33 618.13L685.33 617.96L685.63 605.96L697.68 606.13L697.33 618.13ZM697.66 605.03L685.61 604.86L685.91 592.86L697.91 593.03L697.66 605.03ZM697.99 591.92L685.94 591.75L686.24 579.75L698.24 579.92L697.99 591.92ZM710.12 631.42L698 631.25L698.3 619.25L710.3 619.42L710.12 631.42ZM710.45 618.31L698.45 618.14L698.75 606.14L710.8 606.31L710.45 618.31ZM710.78 605.21L698.68 605L698.98 593L710.98 593.17L710.78 605.21ZM711.1 592.1L699.1 591.93L699.4 579.93L711.45 580.1L711.1 592.1ZM723.24 631.6L711.19 631.43L711.49 619.43L723.49 619.6L723.24 631.6ZM723.57 618.49L711.57 618.32L711.87 606.32L723.92 606.49L723.57 618.49ZM723.9 605.39L711.85 605.22L712.15 593.22L724.15 593.39L723.9 605.39ZM724.22 592.28L712.22 592.11L712.52 580.11L724.57 580.28L724.22 592.28ZM736.36 631.78L724.36 631.61L724.66 619.61L736.71 619.78L736.36 631.78ZM736.69 618.67L724.69 618.5L724.99 606.5L737.04 606.67L736.69 618.67ZM737.01 605.57L724.96 605.4L725.26 593.4L737.26 593.57L737.01 605.57ZM737.34 592.46L725.34 592.29L725.64 580.29L737.69 580.46L737.34 592.46ZM749.43 632L737.43 631.83L737.73 619.83L749.78 620L749.43 632ZM749.75 618.89L737.75 618.72L738.05 606.72L750.05 606.89L749.75 618.89ZM750.08 605.79L738 605.58L738.3 593.58L750.3 593.75L750.08 605.79ZM750.41 592.68L738.41 592.51L738.71 580.51L750.76 580.68L750.41 592.68ZM762.87 619L750.87 618.83L751.17 606.83L763.17 607L762.87 619ZM752.11 567.48L764.11 567.65L763.81 579.65L751.76 579.48L752.11 567.48ZM751.78 580.59L763.83 580.76L763.53 592.76L751.53 592.59L751.78 580.59ZM751.45 593.7L763.45 593.87L763.15 605.87L751.1 605.7L751.45 593.7ZM739.32 554.19L751.32 554.36L751.02 566.36L739 566.26L739.32 554.19ZM739 567.33L751 567.5L750.7 579.5L738.7 579.33L739 567.33Z" fill="#6A8D92"/>
</g>
<path d="M845.8 523.17C800.23 516.56 709.8 489.48 689.9 483.17C688.343 482.67 687.032 481.602 686.228 480.179C685.423 478.756 685.185 477.081 685.56 475.49L689.65 456.43L691.65 456.85L687.55 475.93C687.286 477.034 687.448 478.198 688.005 479.187C688.561 480.177 689.47 480.921 690.55 481.27C710.46 487.61 800.7 514.64 846.13 521.27L845.8 523.17Z" fill="#6A8D92"/>
<path d="M644 491.28L722.19 494.92C725.205 495.066 728.108 496.102 730.536 497.895C732.963 499.689 734.805 502.161 735.83 505L745.21 539.43C735.664 535.835 725.909 532.82 716 530.4C696.34 525.48 644 491.28 644 491.28Z" fill="#157075"/>
<path opacity="0.2" d="M644 491.28L722.19 494.92C725.205 495.066 728.108 496.102 730.536 497.895C732.963 499.689 734.805 502.161 735.83 505L745.21 539.43C735.664 535.835 725.909 532.82 716 530.4C696.34 525.48 644 491.28 644 491.28Z" fill="#6A8D92"/>
<path d="M693.88 616.79C693.548 617.597 693.414 618.472 693.489 619.342C693.564 620.212 693.845 621.051 694.31 621.79L697.39 630.29L676.8 627.13L677.65 619.22C678.89 616.439 679.644 613.466 679.88 610.43L685.24 575.78C686.835 561.713 690.969 548.052 697.44 535.46L698.37 533.65L680.47 532.57L690.86 500.66L719.19 506.58C721.26 506.941 723.229 507.744 724.961 508.933C726.693 510.123 728.149 511.672 729.229 513.475C730.309 515.278 730.987 517.293 731.219 519.381C731.45 521.47 731.229 523.584 730.57 525.58L693.88 616.79Z" fill="#FFC183"/>
<path d="M645.3 353.13L646.01 356.13C646.738 359.226 646.592 362.462 645.59 365.48L645.35 366.19V366.49L648.03 371.61C648.106 371.753 648.151 371.911 648.161 372.073C648.172 372.235 648.148 372.398 648.091 372.55C648.035 372.702 647.946 372.84 647.833 372.956C647.719 373.071 647.581 373.161 647.43 373.22L645.43 373.99L644.48 380.18C644.355 380.984 644.064 381.754 643.626 382.441C643.189 383.127 642.613 383.716 641.937 384.168C641.26 384.621 640.497 384.929 639.696 385.072C638.894 385.215 638.072 385.191 637.28 385L632.8 384L634.29 399.18L612.14 389.83L615.3 372.83L615.72 356.1L645.3 353.13Z" fill="#FFC183"/>
<path d="M642.92 344.92C640.78 345.16 638.69 345.69 636.79 344.74L634.47 343.13C630.84 340.87 624.59 341.76 622.68 344.74C622.2 345.16 621.43 346.53 620.12 346.17C616.55 345.28 612.92 347.3 612.12 349.8L612 350C609.62 357.2 612.77 366.37 615.1 373.81C616.247 373.691 617.35 373.306 618.322 372.686C619.294 372.067 620.108 371.229 620.7 370.24L621.41 366.24L626.35 365.7V367.13C626.349 367.271 626.375 367.411 626.429 367.541C626.482 367.671 626.561 367.79 626.66 367.89C626.76 367.989 626.879 368.068 627.009 368.121C627.139 368.175 627.279 368.201 627.42 368.2C627.691 368.196 627.95 368.091 628.148 367.907C628.346 367.722 628.468 367.47 628.49 367.2L628.97 363.39L631.05 363.27C633.13 363.03 634.62 362.14 635.05 360.11L635.41 358.56C635.498 358.151 635.703 357.775 635.999 357.479C636.295 357.183 636.671 356.979 637.08 356.89L645.77 354.57C651.61 351.88 648.64 344.14 642.92 344.92Z" fill="#282F4F"/>
<path opacity="0.15" d="M632.8 383.91L629.23 382.78C629.075 382.731 628.909 382.733 628.756 382.785C628.603 382.837 628.47 382.937 628.377 383.07C628.285 383.203 628.237 383.362 628.241 383.524C628.245 383.686 628.301 383.842 628.4 383.97L633.4 390.04L632.8 383.91Z" fill="black"/>
<path opacity="0.15" d="M620.77 370.28C621.21 371.061 621.751 371.781 622.38 372.42L617.86 373.02C618.506 372.785 619.097 372.421 619.597 371.95C620.097 371.478 620.496 370.91 620.77 370.28Z" fill="black"/>
<path d="M642.68 368.08C642.946 368.106 643.213 368.051 643.446 367.923C643.68 367.794 643.869 367.598 643.989 367.359C644.109 367.121 644.154 366.852 644.118 366.588C644.082 366.323 643.966 366.076 643.787 365.879C643.608 365.681 643.373 365.543 643.113 365.482C642.853 365.42 642.581 365.439 642.333 365.536C642.084 365.632 641.87 365.802 641.72 366.022C641.569 366.242 641.489 366.503 641.49 366.77C641.482 366.934 641.506 367.098 641.562 367.253C641.617 367.408 641.703 367.55 641.813 367.672C641.924 367.794 642.057 367.892 642.206 367.962C642.355 368.032 642.516 368.072 642.68 368.08Z" fill="black"/>
<path d="M643.34 366.41C643.376 366.41 643.41 366.399 643.44 366.38C643.47 366.36 643.493 366.332 643.506 366.299C643.52 366.266 643.523 366.23 643.516 366.195C643.51 366.16 643.492 366.128 643.467 366.103C643.442 366.078 643.41 366.06 643.375 366.053C643.34 366.046 643.304 366.05 643.271 366.064C643.238 366.077 643.21 366.1 643.19 366.13C643.17 366.16 643.16 366.194 643.16 366.23C643.16 366.278 643.179 366.324 643.213 366.357C643.246 366.391 643.292 366.41 643.34 366.41Z" fill="white"/>
<path d="M720.13 506.65L706.8 503.78L638.17 490.09L626.51 487.34C625.75 488 619.82 493.34 619.02 493.98C611.39 499.57 612.54 504.59 603.1 503.46L595.68 505.59C595.671 509.958 597.389 514.153 600.46 517.26C607.9 524.744 617.913 529.111 628.46 529.47L687.34 533L688.54 533.06L691.62 533.24L687.34 552.73L719.71 558.24L731.38 527.31C732.175 525.221 732.508 522.985 732.358 520.756C732.207 518.526 731.576 516.355 730.507 514.392C729.438 512.43 727.957 510.722 726.166 509.385C724.375 508.049 722.316 507.116 720.13 506.65Z" fill="#157075"/>
<path opacity="0.2" d="M720.13 506.65L706.8 503.78L638.17 490.09L626.51 487.34C625.75 488 619.82 493.34 619.02 493.98C611.39 499.57 612.54 504.59 603.1 503.46L595.68 505.59C595.671 509.958 597.389 514.153 600.46 517.26C607.9 524.744 617.913 529.111 628.46 529.47L687.34 533L688.54 533.06L691.62 533.24L687.34 552.73L719.71 558.24L731.38 527.31C732.175 525.221 732.508 522.985 732.358 520.756C732.207 518.526 731.576 516.355 730.507 514.392C729.438 512.43 727.957 510.722 726.166 509.385C724.375 508.049 722.316 507.116 720.13 506.65Z" fill="#6A8D92"/>
<path opacity="0.15" d="M690.4 538.71L695.71 534.53C695.805 534.46 695.876 534.363 695.916 534.251C695.955 534.14 695.96 534.019 695.929 533.905C695.899 533.791 695.836 533.688 695.746 533.611C695.657 533.533 695.547 533.484 695.43 533.47L691.61 533.19C691.61 533.19 690.8 536.86 690.4 538.71Z" fill="black"/>
<path opacity="0.15" d="M719.58 557.84L731.58 525.53C734.37 517.04 728.01 507.07 719.2 505.53L717.51 505.25C723.26 508.25 725.37 517.35 722.99 524.48L713.7 556.89L719.58 557.84Z" fill="black"/>
<path opacity="0.15" d="M717.58 557.84L693.86 616.84C693.531 617.648 693.398 618.523 693.473 619.392C693.547 620.261 693.828 621.1 694.29 621.84L699.73 630.44L697.39 630.28L691.39 621.28C690.925 620.541 690.644 619.702 690.569 618.832C690.494 617.962 690.628 617.087 690.96 616.28L711.65 556.91L717.58 557.84Z" fill="black"/>
<path d="M645.38 362.78L639.56 363.35C639.335 363.37 639.117 363.434 638.918 363.54C638.718 363.645 638.542 363.789 638.398 363.963C638.255 364.137 638.148 364.337 638.083 364.553C638.018 364.769 637.997 364.996 638.02 365.22L638.15 366.54C638.309 367.738 638.927 368.827 639.874 369.578C640.821 370.329 642.022 370.682 643.225 370.564C644.427 370.446 645.537 369.866 646.32 368.945C647.102 368.024 647.497 366.836 647.42 365.63L647.29 364.31C647.247 363.932 647.078 363.58 646.81 363.31C646.416 362.961 645.906 362.772 645.38 362.78ZM646.58 364.38L646.71 365.7C646.835 366.252 646.842 366.824 646.73 367.378C646.618 367.933 646.39 368.457 646.06 368.917C645.731 369.377 645.307 369.761 644.818 370.045C644.329 370.329 643.785 370.507 643.222 370.565C642.66 370.623 642.091 370.562 641.554 370.384C641.017 370.207 640.523 369.917 640.106 369.535C639.689 369.153 639.358 368.686 639.135 368.167C638.911 367.647 638.801 367.086 638.81 366.52L638.68 365.2C638.66 365.062 638.67 364.922 638.707 364.788C638.745 364.654 638.81 364.53 638.898 364.423C638.987 364.315 639.097 364.228 639.221 364.165C639.345 364.103 639.481 364.067 639.62 364.06L645.44 363.49C645.574 363.47 645.71 363.478 645.841 363.513C645.971 363.547 646.094 363.608 646.2 363.691C646.307 363.774 646.395 363.878 646.461 363.997C646.526 364.115 646.567 364.245 646.58 364.38Z" fill="black"/>
<path d="M645.08 376.3C642.57 376.06 641.76 375.08 641.76 375.08C641.963 375.804 642.343 376.467 642.867 377.006C643.391 377.546 644.042 377.946 644.76 378.17L645.08 376.3Z" fill="white"/>
<path opacity="0.15" d="M645.42 374L644.88 374.25L645.25 375.13L645.42 374Z" fill="black"/>
<path d="M640.72 411.6L634.35 399.16C629.145 396.962 624.397 393.812 620.35 389.87L613.5 383.14L604 392.38C603.093 393.273 602.232 394.211 601.42 395.19C600.701 396.012 600.033 396.877 599.42 397.78C598.25 399.465 597.217 401.241 596.33 403.09H596.38C593.368 409.358 592.117 416.326 592.76 423.25L597.28 471.11C597.44 472.714 597.42 474.331 597.22 475.93L595.69 505.64C595.69 505.64 605.23 508.53 608.53 508.79C618.66 509.6 620.86 504.9 627.05 496.86C628.682 495.451 630.406 494.151 632.21 492.97C635.889 491.262 639.99 490.678 644 491.29L644.14 489.41L647 449.17C648.22 434.1 647.45 424.28 640.72 411.6Z" fill="#7A5C61"/>
<path d="M634.35 399.15C634.35 399.15 626.53 396.59 613.41 383L611.94 384.61C611.94 384.61 616.52 389.61 626.49 396.81C632.42 401.06 635.94 402.27 635.94 402.27L634.35 399.15Z" fill="#803155"/>
<path opacity="0.4" d="M634.35 399.15C634.35 399.15 626.53 396.59 613.41 383L611.94 384.61C611.94 384.61 616.52 389.61 626.49 396.81C632.42 401.06 635.94 402.27 635.94 402.27L634.35 399.15Z" fill="#7A5C61"/>
<path d="M709.81 640.07C706.74 638.46 702.25 636.69 702.25 636.69L697.61 627.6L694.93 616.68L687.33 622.53L678.28 615.89L676.47 625.32L672.61 631.12C679.979 636.536 688.019 640.973 696.53 644.32C709.62 649.32 712.17 645.93 712.17 645.93C712.17 645.93 712.88 641.67 709.81 640.07Z" fill="#803155"/>
<path opacity="0.2" d="M709.81 640.07C706.74 638.46 702.25 636.69 702.25 636.69L697.61 627.6L694.93 616.68L687.33 622.53L678.28 615.89L676.47 625.32L672.61 631.12C679.979 636.536 688.019 640.973 696.53 644.32C709.62 649.32 712.17 645.93 712.17 645.93C712.17 645.93 712.88 641.67 709.81 640.07Z" fill="#7A5C61"/>
<path opacity="0.3" d="M687.33 622.53L694.93 616.68L697.61 627.6L702.25 636.69L696.12 636.28L687.33 622.53Z" fill="white"/>
<path d="M687.33 622.53L689.5 613.94L679.87 609.28L678.28 615.89L687.33 622.53Z" fill="#282F4F"/>
<path opacity="0.15" d="M644 523L651.43 500L672.94 504.62C673.444 504.73 673.921 504.942 674.339 505.244C674.758 505.545 675.11 505.93 675.374 506.374C675.637 506.817 675.807 507.311 675.872 507.823C675.936 508.335 675.895 508.855 675.75 509.35L671.66 523.14C671.408 523.98 670.87 524.704 670.139 525.188C669.409 525.673 668.531 525.885 667.66 525.79L644 523Z" fill="black"/>
<path opacity="0.15" d="M644 523L651.43 500L657.72 501.35L650.49 523.72L644 523Z" fill="black"/>
<path d="M689.5 613.94L696.44 610.44L694.93 616.68L687.33 622.53L689.5 613.94Z" fill="#803155"/>
<path d="M712.17 645.94L711.17 649.15C706.454 649.722 701.671 649.33 697.11 648L695.81 647.6C690.4 645.93 678.65 638.76 678.65 638.76L678.33 639.76L670.66 637.38L672.6 631.14C672.6 631.14 685.6 640.45 693.79 643.37C702.83 646.59 707.22 648.12 712.17 645.94Z" fill="#282F4F"/>
<path opacity="0.2" d="M689.5 613.94L696.44 610.44L694.93 616.68L687.33 622.53L689.5 613.94Z" fill="#7A5C61"/>
<path opacity="0.2" d="M687.33 622.53L689.5 613.94L679.87 609.28L678.28 615.89L687.33 622.53Z" fill="black"/>
<path opacity="0.2" d="M712.17 645.94L711.17 649.15C706.454 649.722 701.671 649.33 697.11 648L695.81 647.6C690.4 645.93 678.65 638.76 678.65 638.76L678.33 639.76L670.66 637.38L672.6 631.14C672.6 631.14 685.6 640.45 693.79 643.37C702.83 646.59 707.22 648.12 712.17 645.94Z" fill="#7A5C61"/>
<path opacity="0.2" d="M627 496.82L629.07 495.19C633.24 491.32 638.27 490.74 643.93 491.28L646.91 449C643.93 475.35 627 496.82 627 496.82Z" fill="black"/>
<path d="M604.43 467.54L606.92 443.66L630.55 448.06L627.65 461.33L672.65 464.52L675.05 464.65C675.407 464.737 675.78 464.728 676.132 464.622C676.483 464.517 676.8 464.319 677.05 464.05L677.81 463.05C678.559 462.242 679.459 461.59 680.46 461.13C682.86 460.04 684.23 460.56 685.15 458.13L685.5 457.46C685.797 456.893 686.28 456.445 686.869 456.192C687.457 455.939 688.114 455.896 688.73 456.07L689.87 456.4C689.87 456.4 689.53 458.4 689.46 458.98C689.42 459.426 689.42 459.874 689.46 460.32C689.61 460.87 689.82 461.18 690.39 461.32L694.98 462.61C697.19 463.08 696.9 466.05 694.91 465.86L693.61 465.75L695.32 466.39C697.69 467.14 697.12 470.28 695.15 470.14C693.18 470 690.98 469.8 690.98 469.8L693.57 470.39C694.025 470.521 694.412 470.823 694.648 471.233C694.885 471.643 694.954 472.129 694.84 472.589C694.726 473.048 694.438 473.446 694.038 473.698C693.637 473.95 693.154 474.037 692.69 473.94C691.2 473.8 688.82 473.42 688.82 473.42L690.42 473.91C692.42 474.22 692.21 477.31 690.36 477.22C688.76 477.15 679.58 477.04 671.84 476.79L615.33 478.68C613.855 478.768 612.378 478.538 611 478.006C609.621 477.474 608.373 476.652 607.34 475.596C606.306 474.54 605.512 473.274 605.01 471.884C604.508 470.494 604.31 469.013 604.43 467.54Z" fill="#FFC183"/>
<path opacity="0.15" d="M615 478.66L671.79 477C679.53 477.25 688.71 477.36 690.31 477.43C690.534 477.428 690.754 477.377 690.956 477.28C691.158 477.184 691.337 477.045 691.48 476.873C691.622 476.7 691.726 476.499 691.783 476.283C691.84 476.066 691.849 475.84 691.81 475.62C691.81 475.62 691.5 476.4 690.31 476.21C689.69 476.12 686.17 475.47 680.17 474.16C676.94 473.478 673.651 473.11 670.35 473.06C657.85 472.85 625.29 472.2 616.45 471.56C615.837 471.522 615.237 471.362 614.687 471.089C614.137 470.815 613.647 470.434 613.247 469.967C612.847 469.501 612.545 468.959 612.358 468.374C612.171 467.789 612.104 467.172 612.16 466.56L614.53 445.07L606.91 443.65L604.42 467.53C604.309 468.973 604.502 470.424 604.987 471.788C605.472 473.152 606.238 474.398 607.235 475.448C608.232 476.497 609.439 477.325 610.776 477.878C612.114 478.431 613.553 478.698 615 478.66Z" fill="black"/>
<path d="M606.92 443.67L630.55 448.07L636.65 420.44C637.065 418.567 637.087 416.628 636.715 414.746C636.343 412.863 635.585 411.079 634.489 409.504C633.393 407.929 631.982 406.599 630.347 405.596C628.711 404.593 626.885 403.941 624.984 403.679C623.084 403.417 621.149 403.551 619.303 404.074C617.457 404.597 615.74 405.497 614.259 406.716C612.777 407.936 611.565 409.449 610.698 411.16C609.831 412.872 609.327 414.744 609.22 416.66L606.92 443.67Z" fill="#7A5C61"/>
<path opacity="0.2" d="M606.35 444.07C606.24 444.04 606.142 443.975 606.072 443.885C606.002 443.795 605.962 443.684 605.96 443.57L608.28 416.36C608.288 416.227 608.348 416.103 608.448 416.015C608.497 415.972 608.554 415.938 608.616 415.917C608.679 415.895 608.744 415.886 608.81 415.89C608.876 415.894 608.94 415.911 608.999 415.939C609.058 415.968 609.111 416.008 609.155 416.058C609.198 416.107 609.232 416.164 609.253 416.226C609.275 416.289 609.284 416.354 609.28 416.42L606.96 443.63C606.955 443.702 606.934 443.771 606.899 443.834C606.864 443.896 606.816 443.951 606.758 443.993C606.7 444.035 606.633 444.063 606.562 444.077C606.492 444.09 606.419 444.088 606.35 444.07Z" fill="black"/>
<path opacity="0.2" d="M635.85 423.85L627.65 461.33L632.57 461.68L635.85 423.85Z" fill="black"/>
<path opacity="0.15" d="M644 491.28L720.31 506.2C723.611 506.84 726.597 508.583 728.778 511.143C730.958 513.704 732.204 516.929 732.31 520.29C732.367 522.92 731.922 525.537 731 528L728.85 533.91L731.04 534.6L733.35 526.6C734.509 522.57 734.351 518.275 732.9 514.34L731.9 511.52C730.977 509.423 729.541 507.592 727.726 506.194C725.911 504.796 723.773 503.877 721.51 503.52L644 491.28Z" fill="black"/>
<path d="M629.52 377.9L621.44 370.71L623.44 363.25L632.33 368.91L629.52 377.9ZM622.2 370.56L629.36 376.68L631.48 369.06L623.68 364.45L622.2 370.56Z" fill="#157075"/>
<g opacity="0.3">
<path opacity="0.3" d="M629.52 377.9L621.44 370.71L623.44 363.25L632.33 368.91L629.52 377.9ZM622.2 370.56L629.36 376.68L631.48 369.06L623.68 364.45L622.2 370.56Z" fill="#6A8D92"/>
</g>
<path d="M630.81 368C633.265 369.603 636.063 370.607 638.978 370.93C641.893 371.253 644.843 370.887 647.59 369.86C648.02 369.7 648.41 370.25 648.43 370.71C648.57 373.27 648.34 381.36 640.81 385.88C640.658 385.968 640.486 386.014 640.31 386.014C640.134 386.014 639.962 385.968 639.81 385.88C634.946 383.373 630.6 379.97 627 375.85L630.81 368Z" fill="#6A8D92"/>
<path d="M626.43 373.85C624.757 373.847 623.154 373.182 621.971 371.999C620.788 370.816 620.123 369.213 620.12 367.54V366C620.12 365.162 620.453 364.358 621.046 363.766C621.638 363.173 622.442 362.84 623.28 362.84C624.118 362.84 624.922 363.173 625.515 363.766C626.107 364.358 626.44 365.162 626.44 366L626.43 373.85Z" fill="#FFC183"/>
<path opacity="0.15" d="M624.82 368.14C624.696 368.131 624.579 368.077 624.491 367.989C624.403 367.901 624.349 367.784 624.34 367.66V366.35C624.337 366.035 624.211 365.734 623.989 365.511C623.766 365.289 623.465 365.163 623.15 365.16C622.979 365.153 622.808 365.187 622.653 365.26C622.498 365.334 622.363 365.443 622.26 365.58C622.182 365.674 622.069 365.733 621.947 365.745C621.825 365.756 621.704 365.718 621.61 365.64C621.516 365.562 621.457 365.449 621.445 365.327C621.434 365.206 621.472 365.084 621.55 364.99C621.746 364.757 621.994 364.571 622.273 364.448C622.552 364.325 622.855 364.268 623.16 364.28C623.71 364.285 624.236 364.506 624.625 364.895C625.014 365.284 625.235 365.81 625.24 366.36V367.67C625.3 368 625.12 368.14 624.82 368.14Z" fill="black"/>
</svg>
