<svg width="194" height="24" viewBox="0 0 194 24" fill="none" xmlns="http://www.w3.org/2000/svg">
<path d="M85.0296 10.0032C85.0296 10.6864 84.8728 11.3136 84.5592 11.8848C84.2456 12.4448 83.764 12.8984 83.1144 13.2456C82.4648 13.5928 81.6584 13.7664 80.6952 13.7664H78.9144V18H76.0416V6.2064H80.6952C81.636 6.2064 82.4312 6.3688 83.0808 6.6936C83.7304 7.0184 84.2176 7.4664 84.5424 8.0376C84.8672 8.6088 85.0296 9.264 85.0296 10.0032ZM80.4768 11.4816C81.0256 11.4816 81.4344 11.3528 81.7032 11.0952C81.972 10.8376 82.1064 10.4736 82.1064 10.0032C82.1064 9.5328 81.972 9.1688 81.7032 8.9112C81.4344 8.6536 81.0256 8.5248 80.4768 8.5248H78.9144V11.4816H80.4768ZM85.954 13.296C85.954 12.3328 86.1332 11.4872 86.4916 10.7592C86.8612 10.0312 87.3596 9.4712 87.9868 9.0792C88.614 8.6872 89.314 8.4912 90.0868 8.4912C90.7476 8.4912 91.3244 8.6256 91.8172 8.8944C92.3212 9.1632 92.7076 9.516 92.9764 9.9528V8.6256H95.8492V18H92.9764V16.6728C92.6964 17.1096 92.3044 17.4624 91.8004 17.7312C91.3076 18 90.7308 18.1344 90.07 18.1344C89.3084 18.1344 88.614 17.9384 87.9868 17.5464C87.3596 17.1432 86.8612 16.5776 86.4916 15.8496C86.1332 15.1104 85.954 14.2592 85.954 13.296ZM92.9764 13.3128C92.9764 12.596 92.7748 12.0304 92.3716 11.616C91.9796 11.2016 91.498 10.9944 90.9268 10.9944C90.3556 10.9944 89.8684 11.2016 89.4652 11.616C89.0732 12.0192 88.8772 12.5792 88.8772 13.296C88.8772 14.0128 89.0732 14.584 89.4652 15.0096C89.8684 15.424 90.3556 15.6312 90.9268 15.6312C91.498 15.6312 91.9796 15.424 92.3716 15.0096C92.7748 14.5952 92.9764 14.0296 92.9764 13.3128ZM100.8 10.188C101.136 9.6728 101.556 9.2696 102.06 8.9784C102.564 8.676 103.124 8.5248 103.74 8.5248V11.5656H102.951C102.234 11.5656 101.696 11.7224 101.338 12.036C100.98 12.3384 100.8 12.876 100.8 13.6488V18H97.9275V8.6256H100.8V10.188ZM110.338 15.564V18H108.877C107.835 18 107.023 17.748 106.441 17.244C105.858 16.7288 105.567 15.8944 105.567 14.7408V11.0112H104.425V8.6256H105.567V6.3408H108.44V8.6256H110.321V11.0112H108.44V14.7744C108.44 15.0544 108.507 15.256 108.641 15.3792C108.776 15.5024 109 15.564 109.313 15.564H110.338ZM117.65 8.5248C118.748 8.5248 119.622 8.8832 120.271 9.6C120.932 10.3056 121.262 11.28 121.262 12.5232V18H118.406V12.9096C118.406 12.2824 118.244 11.7952 117.919 11.448C117.594 11.1008 117.158 10.9272 116.609 10.9272C116.06 10.9272 115.623 11.1008 115.298 11.448C114.974 11.7952 114.811 12.2824 114.811 12.9096V18H111.938V8.6256H114.811V9.8688C115.102 9.4544 115.494 9.1296 115.987 8.8944C116.48 8.648 117.034 8.5248 117.65 8.5248ZM132.096 13.1616C132.096 13.4304 132.079 13.7104 132.045 14.0016H125.544C125.588 14.584 125.773 15.032 126.098 15.3456C126.434 15.648 126.843 15.7992 127.324 15.7992C128.041 15.7992 128.54 15.4968 128.82 14.892H131.877C131.72 15.508 131.435 16.0624 131.02 16.5552C130.617 17.048 130.108 17.4344 129.492 17.7144C128.876 17.9944 128.187 18.1344 127.425 18.1344C126.507 18.1344 125.689 17.9384 124.972 17.5464C124.256 17.1544 123.696 16.5944 123.292 15.8664C122.889 15.1384 122.688 14.2872 122.688 13.3128C122.688 12.3384 122.884 11.4872 123.276 10.7592C123.679 10.0312 124.239 9.4712 124.956 9.0792C125.672 8.6872 126.496 8.4912 127.425 8.4912C128.332 8.4912 129.139 8.6816 129.844 9.0624C130.55 9.4432 131.099 9.9864 131.491 10.692C131.894 11.3976 132.096 12.2208 132.096 13.1616ZM129.156 12.4056C129.156 11.9128 128.988 11.5208 128.652 11.2296C128.316 10.9384 127.896 10.7928 127.392 10.7928C126.91 10.7928 126.501 10.9328 126.165 11.2128C125.84 11.4928 125.639 11.8904 125.56 12.4056H129.156ZM136.484 10.188C136.82 9.6728 137.24 9.2696 137.744 8.9784C138.248 8.676 138.808 8.5248 139.424 8.5248V11.5656H138.634C137.918 11.5656 137.38 11.7224 137.022 12.036C136.663 12.3384 136.484 12.876 136.484 13.6488V18H133.611V8.6256H136.484V10.188ZM140.226 13.3128C140.226 12.3384 140.422 11.4872 140.814 10.7592C141.217 10.0312 141.771 9.4712 142.477 9.0792C143.194 8.6872 144.011 8.4912 144.93 8.4912C146.106 8.4912 147.086 8.7992 147.87 9.4152C148.665 10.0312 149.186 10.8992 149.432 12.0192H146.375C146.117 11.3024 145.619 10.944 144.879 10.944C144.353 10.944 143.933 11.1512 143.619 11.5656C143.306 11.9688 143.149 12.5512 143.149 13.3128C143.149 14.0744 143.306 14.6624 143.619 15.0768C143.933 15.48 144.353 15.6816 144.879 15.6816C145.619 15.6816 146.117 15.3232 146.375 14.6064H149.432C149.186 15.704 148.665 16.5664 147.87 17.1936C147.075 17.8208 146.095 18.1344 144.93 18.1344C144.011 18.1344 143.194 17.9384 142.477 17.5464C141.771 17.1544 141.217 16.5944 140.814 15.8664C140.422 15.1384 140.226 14.2872 140.226 13.3128ZM156.731 8.5248C157.807 8.5248 158.669 8.8832 159.319 9.6C159.968 10.3056 160.293 11.28 160.293 12.5232V18H157.437V12.9096C157.437 12.2824 157.275 11.7952 156.95 11.448C156.625 11.1008 156.188 10.9272 155.639 10.9272C155.091 10.9272 154.654 11.1008 154.329 11.448C154.004 11.7952 153.842 12.2824 153.842 12.9096V18H150.969V5.568H153.842V9.8856C154.133 9.4712 154.531 9.1408 155.035 8.8944C155.539 8.648 156.104 8.5248 156.731 8.5248ZM171.126 13.1616C171.126 13.4304 171.109 13.7104 171.076 14.0016H164.574C164.619 14.584 164.804 15.032 165.128 15.3456C165.464 15.648 165.873 15.7992 166.355 15.7992C167.072 15.7992 167.57 15.4968 167.85 14.892H170.908C170.751 15.508 170.465 16.0624 170.051 16.5552C169.648 17.048 169.138 17.4344 168.522 17.7144C167.906 17.9944 167.217 18.1344 166.456 18.1344C165.537 18.1344 164.72 17.9384 164.003 17.5464C163.286 17.1544 162.726 16.5944 162.323 15.8664C161.92 15.1384 161.718 14.2872 161.718 13.3128C161.718 12.3384 161.914 11.4872 162.306 10.7592C162.709 10.0312 163.269 9.4712 163.986 9.0792C164.703 8.6872 165.526 8.4912 166.456 8.4912C167.363 8.4912 168.169 8.6816 168.875 9.0624C169.58 9.4432 170.129 9.9864 170.521 10.692C170.924 11.3976 171.126 12.2208 171.126 13.1616ZM168.186 12.4056C168.186 11.9128 168.018 11.5208 167.682 11.2296C167.346 10.9384 166.926 10.7928 166.422 10.7928C165.94 10.7928 165.532 10.9328 165.196 11.2128C164.871 11.4928 164.669 11.8904 164.591 12.4056H168.186ZM172.07 13.3128C172.07 12.3384 172.266 11.4872 172.658 10.7592C173.062 10.0312 173.616 9.4712 174.322 9.0792C175.038 8.6872 175.856 8.4912 176.774 8.4912C177.95 8.4912 178.93 8.7992 179.714 9.4152C180.51 10.0312 181.03 10.8992 181.277 12.0192H178.219C177.962 11.3024 177.463 10.944 176.724 10.944C176.198 10.944 175.778 11.1512 175.464 11.5656C175.15 11.9688 174.994 12.5512 174.994 13.3128C174.994 14.0744 175.15 14.6624 175.464 15.0768C175.778 15.48 176.198 15.6816 176.724 15.6816C177.463 15.6816 177.962 15.3232 178.219 14.6064H181.277C181.03 15.704 180.51 16.5664 179.714 17.1936C178.919 17.8208 177.939 18.1344 176.774 18.1344C175.856 18.1344 175.038 17.9384 174.322 17.5464C173.616 17.1544 173.062 16.5944 172.658 15.8664C172.266 15.1384 172.07 14.2872 172.07 13.3128ZM188.542 18L185.686 14.0688V18H182.813V5.568H185.686V12.4392L188.525 8.6256H192.07L188.173 13.3296L192.104 18H188.542Z" fill="#6A8D92"/>
<path d="M70.9715 11.9738C70.9604 11.935 70.8716 11.9017 70.7829 11.9017C70.5499 11.9017 70.4531 11.6853 70.4531 11.4356C70.4531 11.2137 70.4611 11.0695 70.6497 11.0695C70.8439 11.0695 70.8661 10.9807 70.7274 10.7588C70.4278 10.2761 69.984 10.2206 69.2738 10.5868C68.8355 10.8143 68.7967 10.8198 68.6192 10.7588C68.2364 10.6201 67.5984 10.6645 66.6275 10.903C64.6468 11.3913 60.619 11.7574 53.8394 12.0681C51.4593 12.1791 47.9586 12.34 47.8476 12.351C47.7089 12.3566 48.0362 12.4509 48.2193 12.4509C48.6965 12.462 48.874 12.6562 48.7353 12.9946C48.641 13.2165 48.4191 13.4828 48.2471 13.5716C48.1028 13.6548 47.5924 13.7269 47.426 13.6937C47.2873 13.6659 47.2817 13.6548 47.2484 13.1278C47.1319 11.247 46.3663 9.49385 45.1069 8.24001C44.1027 7.24138 42.9821 6.65329 41.4397 6.32042C40.8461 6.18726 38.7601 6.17062 38.1387 6.28713C36.8627 6.53124 35.9361 6.94179 33.8779 8.16789C33.2343 8.5507 32.6518 8.88912 32.5852 8.91686C32.4187 8.99453 32.0803 8.85583 29.9277 7.87939C27.8306 6.92514 27.4145 6.7587 26.6378 6.59227C25.5892 6.37035 25.2397 6.23165 24.6128 5.81C23.886 5.31623 23.8139 5.28295 23.2147 5.1276C22.8041 5.02219 22.5711 5 21.9109 5C20.9955 5 20.4573 5.08322 19.5364 5.38836C17.9108 5.92096 16.657 6.75316 15.7693 7.89604C15.4475 8.30659 14.7485 9.39399 14.6875 9.58262C14.6708 9.627 14.4877 9.62145 13.9718 9.55488C11.0813 9.16652 7.21991 9.17207 3.71359 9.57707C2.45976 9.72132 1.59982 9.93769 0.701052 10.3316C0.357079 10.4869 0.312695 10.5535 0.523518 10.5979C0.601189 10.6145 0.723244 10.6367 0.800916 10.6534C1.13934 10.7255 1.03948 11.0417 0.540161 11.5078C0.323791 11.7075 0.112968 11.9516 0.0741327 12.0515C-0.0146347 12.2623 -0.0257306 12.5119 0.0519408 12.5119C0.257215 12.5119 3.03119 12.2512 4.75661 12.0681C8.21299 11.6964 8.8621 11.6576 11.0924 11.652C12.4183 11.652 13.3282 11.6742 13.7277 11.7241C14.6986 11.8406 14.6209 11.8018 14.6597 12.168C14.6819 12.34 14.7596 12.7616 14.8428 13.0945C14.9538 13.5439 14.9926 13.8601 14.9981 14.3039L15.0092 14.9087L15.6584 15.7575C17.3449 17.96 18.1494 18.6092 19.664 18.9809C21.1786 19.3526 22.8929 19.1362 24.6571 18.3484C25.4616 17.9933 26.0275 17.6715 27.0816 16.9725L27.9526 16.3955L29.1343 17.15C31.9361 18.9476 32.9902 19.5523 34.2551 20.096C36.9681 21.2666 39.3315 21.4608 41.5729 20.7118C43.5812 20.0405 45.3399 18.476 46.5605 16.279C46.7602 15.9239 46.7658 15.8962 46.7658 15.3248C46.7658 14.4315 46.8601 14.2984 47.3927 14.4371C47.9364 14.5758 48.4856 14.5813 49.8504 14.4593C50.5772 14.3982 52.5245 14.2928 54.1723 14.2318C59.8978 14.021 62.2834 13.8767 64.6968 13.5938C65.5623 13.4939 65.9284 13.4163 66.9603 13.1167L67.7648 12.8837L68.9021 12.8726C70.2614 12.8559 70.45 12.8171 70.7773 12.4787C70.9937 12.2456 71.0381 12.1347 70.9715 11.9738ZM69.5457 11.8184L69.3626 12.1513L68.6081 12.2179C67.8314 12.2845 67.21 12.3843 66.4388 12.5674C66.1947 12.6284 65.9839 12.6673 65.9728 12.6506C65.9617 12.6395 65.995 12.4842 66.0449 12.3067C66.1614 11.9128 66.4832 11.5743 66.8827 11.4356C67.0436 11.3802 67.4985 11.3191 67.9867 11.2803C68.7523 11.2304 69.4181 11.136 69.7177 11.0417C69.8286 11.0029 69.8342 11.014 69.7842 11.247C69.751 11.3746 69.6456 11.6354 69.5457 11.8184ZM65.6621 12.3455C65.59 12.3455 65.3126 12.4565 65.0518 12.6007C64.6635 12.8004 64.5248 12.8504 64.3362 12.8337C64.1198 12.8171 64.1031 12.806 64.0865 12.6506C64.0809 12.5619 64.1198 12.3122 64.1753 12.0958L64.2751 11.7075L64.6579 11.6132C65.1572 11.4967 65.5179 11.4911 65.6732 11.6021C65.7786 11.6742 65.7953 11.7352 65.7953 12.0182C65.7953 12.3289 65.7897 12.3455 65.6621 12.3455ZM63.4762 12.3178C63.2876 12.6673 62.7716 12.9169 62.239 12.9114C61.8007 12.9114 61.7453 12.8892 61.7453 12.695C61.7453 12.34 62.0781 11.9738 62.5275 11.8406C62.7439 11.7796 63.3375 11.763 63.504 11.8129C63.6038 11.8462 63.6149 11.8795 63.5761 12.0293C63.5539 12.1291 63.5095 12.2567 63.4762 12.3178ZM61.3458 12.7172C61.0684 12.928 60.1974 13.1444 59.92 13.0723C59.7147 13.0168 59.6481 12.7893 59.748 12.4953C59.8756 12.1402 60.1641 12.0126 60.8687 12.0126L61.4124 12.0126L61.4124 12.34C61.4124 12.5341 61.3846 12.6839 61.3458 12.7172ZM59.1155 12.8115C58.877 13.1777 58.1058 13.4163 57.5565 13.2942C57.3846 13.2554 57.2292 13.1888 57.2181 13.15C57.1571 13.0002 57.3124 12.6284 57.4955 12.4676C57.7341 12.2623 58.0891 12.1791 58.7605 12.1791L59.2653 12.1791L59.2376 12.4287C59.2209 12.5674 59.1655 12.7394 59.1155 12.8115ZM56.9185 12.9946C56.7687 13.2443 56.4691 13.3774 55.7701 13.505C55.4372 13.5661 55.0988 13.6326 55.0156 13.6493C54.8935 13.6826 54.8658 13.6659 54.8325 13.5439C54.7382 13.15 54.9767 12.7228 55.4206 12.4953C55.6924 12.3511 55.7701 12.34 56.1418 12.3566C56.4525 12.3732 56.6245 12.4176 56.7965 12.5119C57.0572 12.6617 57.0794 12.7394 56.9185 12.9946ZM54.4719 12.7727C54.4441 12.8559 54.3276 13.0612 54.2167 13.2221C54.0225 13.4995 54.0058 13.5106 53.7562 13.5106C53.6175 13.5106 53.3845 13.5494 53.2458 13.5993C53.1015 13.6437 52.9129 13.677 52.8241 13.6659L52.6632 13.6493L52.7354 13.3497C52.8852 12.7671 53.2458 12.4454 53.7839 12.4121C54.1279 12.3899 54.5329 12.4731 54.5329 12.5674C54.5329 12.5952 54.5052 12.6839 54.4719 12.7727ZM52.2527 13.1666L52.1362 13.5106L51.7034 13.5106C51.01 13.5106 50.8879 13.4107 51.0654 12.9724C51.193 12.6617 51.3872 12.5452 51.8255 12.523C52.0308 12.5064 52.2416 12.5119 52.286 12.5341C52.4025 12.573 52.3914 12.7616 52.2527 13.1666ZM50.7048 13.0945C50.6216 13.2609 50.5162 13.3663 50.3276 13.4717C50.0446 13.6271 49.0737 13.8712 48.9739 13.8102C48.9128 13.7713 48.9517 13.3663 49.0571 12.9613C49.1125 12.7616 49.1569 12.7006 49.3178 12.634C49.6174 12.5064 50.3553 12.4787 50.6105 12.5841C50.8491 12.6839 50.8657 12.7671 50.7048 13.0945ZM46.6604 13.9822C46.6326 14.1098 46.5938 14.1541 46.4884 14.1652C46.3108 14.1874 46.0057 13.9822 45.8393 13.738C45.7116 13.5494 45.6617 13.4052 45.4176 12.5008L45.2845 12.0126L45.4842 12.0126C45.9946 12.0126 46.4662 12.3178 46.6215 12.7505C46.7047 12.9891 46.7269 13.677 46.6604 13.9822ZM45.8171 11.2581C45.3843 11.0417 44.946 10.7754 44.8406 10.6756C44.6631 10.5036 44.4356 10.143 44.4356 10.032C44.4356 10.0043 44.6409 9.99871 44.8961 10.0209C45.3843 10.0542 45.7338 10.1762 46.0168 10.4204C46.2554 10.6201 46.5605 11.2415 46.5938 11.6021C46.5993 11.6354 46.2498 11.48 45.8171 11.2581ZM46.0667 16.2735L45.9336 16.5675L45.7616 16.4676C45.5341 16.34 45.29 15.9572 45.2179 15.6133C45.1402 15.2637 45.1402 14.487 45.2123 14.2207C45.2678 14.021 45.2789 14.0154 45.4232 14.0765C45.8448 14.254 46.1 14.598 46.2054 15.125C46.2775 15.4746 46.2221 15.9295 46.0667 16.2735ZM44.8018 9.39399C44.4301 9.37179 44.1416 9.24419 43.3982 8.77816C43.1152 8.60063 42.9432 8.45638 42.9543 8.40645C42.9599 8.36207 43.0764 8.28439 43.2095 8.23446C43.3427 8.18453 43.4869 8.10686 43.5202 8.05138C43.5812 7.97371 43.6256 7.96816 43.8697 8.01809C44.1915 8.09022 44.48 8.28439 45.0348 8.79481L45.4232 9.15542L45.2789 9.28858C45.1569 9.39953 45.0958 9.41618 44.8018 9.39399ZM44.7241 17.7548C44.4245 17.8602 44.1416 17.9933 44.0528 18.0821L43.8919 18.2319L43.7643 17.9656C43.6145 17.6549 43.5923 17.1944 43.7144 16.8948C43.781 16.7339 44.1915 15.9683 44.2414 15.9073C44.2803 15.8629 44.7019 16.1292 44.8739 16.3012C45.1014 16.5398 45.2734 17.0002 45.2512 17.3331L45.2401 17.5772L44.7241 17.7548ZM44.186 15.1528C43.6312 16.3622 42.6936 17.3775 41.6672 17.8879C40.7462 18.3484 40.086 18.5037 38.8155 18.5426C37.7725 18.5759 37.3398 18.5315 36.4687 18.2818C35.4202 17.9822 34.7045 17.6383 32.6185 16.451C31.3202 15.7076 30.6323 15.3525 30.1385 15.175L29.789 15.0474L29.9111 14.8754C30.1163 14.5813 31.004 13.7269 31.7308 13.1222C32.1136 12.806 32.624 12.351 32.8737 12.1125L33.3231 11.6742L33.5949 11.7963C34.0554 11.996 35.6033 12.5064 36.4188 12.7339C38.577 13.3275 41.2123 13.788 43.3704 13.9544C43.8808 13.9988 44.2636 14.0543 44.3857 14.1098L44.591 14.2041L44.48 14.4815C44.419 14.6313 44.2914 14.9364 44.186 15.1528ZM43.3982 11.6631C41.9113 11.6187 41.0458 11.4689 38.2496 10.7754C37.3342 10.5424 36.3911 10.3149 36.1581 10.265C35.9195 10.2151 35.7253 10.1485 35.7253 10.1263C35.7253 10.0542 36.1137 9.73796 36.502 9.4883C37.484 8.86138 38.6768 8.58398 40.0805 8.64501C41.8725 8.72823 43.3538 9.47166 44.0251 10.6145C44.1582 10.842 44.4245 11.5133 44.4301 11.6465C44.4356 11.6742 43.9807 11.6797 43.3982 11.6631ZM43.8586 12.7561C43.7255 13.0834 43.4536 13.2276 42.8156 13.3164L42.5493 13.3552L42.5493 13.1555C42.5493 13.0445 42.5881 12.8615 42.6325 12.7505C42.7601 12.4509 42.7379 12.3677 42.5771 12.5563C42.3995 12.7671 41.9834 12.9447 41.3565 13.0723C40.724 13.2054 40.724 13.2054 40.663 13.0445C40.5853 12.8282 40.3634 12.7228 39.8696 12.6673C38.8599 12.5452 38.5548 12.4287 38.5548 12.1513C38.5548 11.9793 38.7933 11.7019 39.0707 11.5632C39.742 11.2193 40.5798 11.4911 40.6963 12.0958L40.7296 12.2845L40.8794 12.1791C41.1956 11.946 42.0777 11.8906 43.0764 12.0404C43.9696 12.1735 43.9363 12.1624 43.9363 12.3788C43.9363 12.4842 43.903 12.6506 43.8586 12.7561ZM43.093 7.62419C42.9321 7.77953 42.5715 7.88494 41.8836 7.9848C41.5618 8.03474 41.2511 8.08467 41.1845 8.10686C41.1013 8.12905 41.0569 8.10131 41.007 7.9959C40.8794 7.70741 40.724 7.66302 39.9973 7.70186C39.5923 7.72405 39.276 7.7185 39.1873 7.68521C39.0596 7.63528 39.043 7.60754 39.0763 7.4522C39.1262 7.19699 39.3703 6.9085 39.6422 6.79199C40.1692 6.55898 40.6797 6.60891 41.0403 6.93069C41.24 7.10268 41.2511 7.10823 41.4675 7.04165C41.9501 6.89186 42.566 6.98062 42.9987 7.26357C43.2484 7.43001 43.2595 7.47439 43.093 7.62419ZM42.9044 18.8699C42.8156 19.0197 42.6103 19.2305 42.4495 19.3415C42.1554 19.5468 41.2955 19.9296 41.24 19.8741C41.1845 19.8186 41.3454 19.0752 41.4841 18.7811C41.5618 18.6147 41.7393 18.365 41.8836 18.2208C42.111 17.9933 42.6492 17.6826 42.9876 17.5883L43.1152 17.5495L43.093 18.0765C43.0764 18.5426 43.0542 18.6313 42.9044 18.8699ZM40.6519 19.2472C40.4966 19.7687 39.7587 20.2403 39.2483 20.1459L39.0375 20.1071L39.0763 19.8519C39.0929 19.7132 39.1762 19.4802 39.2594 19.3248C39.4702 18.942 39.7698 18.77 40.3079 18.7368L40.7185 18.709L40.7185 18.8644C40.7185 18.9476 40.6852 19.1196 40.6519 19.2472ZM38.344 7.69631C38.1331 7.92378 37.9279 8.07357 37.6449 8.20672C36.9958 8.52296 37.0014 8.52296 37.0014 8.17344C37.0014 7.93487 37.0402 7.81282 37.1844 7.57425C37.4785 7.07494 37.9833 6.79754 38.5936 6.79754L38.8821 6.79754L38.7601 7.08603C38.699 7.24138 38.5104 7.51323 38.344 7.69631ZM38.6824 20.0017C38.5381 20.1182 38.4882 20.1237 37.8613 20.0849C37.3287 20.0572 37.1456 20.0683 36.9514 20.1348C36.8183 20.1848 36.7018 20.2236 36.6907 20.2236C36.6629 20.2236 36.7683 19.9129 36.8627 19.7187C36.9126 19.6133 37.0513 19.3859 37.1622 19.2083L37.362 18.8921L37.9445 18.9032L38.527 18.9198L38.5381 19.1695C38.5548 19.5301 38.5992 19.6577 38.7212 19.6966C38.8766 19.7465 38.8599 19.863 38.6824 20.0017ZM38.5215 11.652C38.2385 12.0737 37.9112 12.2512 37.4175 12.2456C37.129 12.2456 36.674 12.1236 36.5464 12.0182C36.4466 11.935 36.6241 11.5688 36.8627 11.358C37.251 11.0195 37.7781 10.9197 38.2774 11.0972C38.7101 11.2526 38.7434 11.3247 38.5215 11.652ZM36.5631 11.2137C36.502 11.3136 36.3411 11.4467 36.1858 11.5189C35.9639 11.6298 35.8363 11.652 35.4202 11.652C35.1483 11.652 34.8266 11.6187 34.7156 11.5743C34.5214 11.5078 34.5048 11.4911 34.5048 11.2803C34.5048 10.4536 35.3869 10.1652 36.3855 10.6589C36.7018 10.8198 36.7406 10.9252 36.5631 11.2137ZM36.3966 19.1362C36.2468 19.3193 36.0637 19.5357 35.9861 19.6078L35.8418 19.7354L35.104 19.3748C34.3272 18.992 33.5172 18.6924 33.0956 18.6369C32.7627 18.587 32.7627 18.4871 33.1011 17.9656L33.3563 17.5661L33.6115 17.5939C34.0387 17.6494 34.527 17.777 34.6712 17.8879C34.7489 17.9378 34.8543 18.071 34.9153 18.1764L35.0152 18.365L35.4701 18.365C35.8585 18.3706 35.9694 18.3928 36.2968 18.5426C36.502 18.6424 36.6685 18.7368 36.6685 18.7534C36.6685 18.7756 36.5464 18.9476 36.3966 19.1362ZM36.4299 8.68385C36.4077 8.68385 36.2357 8.78371 36.0471 8.90577C35.6754 9.14433 35.2981 9.2331 35.0818 9.13323C34.9653 9.0833 34.9486 9.03892 34.9486 8.80035C34.9486 8.32323 35.1261 8.03474 35.5977 7.75734C35.7864 7.64638 36.3079 7.46884 36.4466 7.4633C36.4632 7.4633 36.4743 7.74069 36.4743 8.07357C36.4798 8.412 36.4577 8.68385 36.4299 8.68385ZM35.2482 10.093C35.1983 10.1097 35.0873 10.1263 34.9985 10.1263C34.8709 10.1263 34.821 10.1596 34.7766 10.2761C34.6823 10.5313 34.4548 10.7865 34.2107 10.9197C34.0166 11.0251 33.8889 11.0417 33.4229 11.0417C32.8681 11.0417 32.3411 10.9141 32.3411 10.7865C32.3411 10.6811 32.5519 10.3205 32.685 10.1984C33.0235 9.87666 33.434 9.80454 34.7433 9.83782C35.2815 9.84892 35.337 9.86002 35.337 9.95433C35.337 10.0098 35.2981 10.0764 35.2482 10.093ZM34.5769 8.9446C34.3772 9.37179 33.7059 9.57707 33.3563 9.31631C33.2731 9.25529 33.201 9.17762 33.1899 9.14433C33.1788 9.11104 33.312 8.97234 33.4895 8.82809C33.7891 8.58953 34.1386 8.42309 34.5214 8.32878C34.6657 8.29549 34.6712 8.30104 34.6712 8.52296C34.6712 8.64501 34.6324 8.83919 34.5769 8.9446ZM32.7461 17.5717C32.3133 18.0266 31.348 17.8269 31.0317 17.2166C30.9596 17.0779 30.9596 17.0391 31.0373 16.8948C31.0817 16.8061 31.1871 16.6896 31.2648 16.6341C31.3868 16.5564 31.4534 16.5509 31.7031 16.6008C31.8695 16.6396 32.1691 16.7395 32.3799 16.8283C32.5852 16.917 32.8015 17.0058 32.8626 17.028C33.0068 17.0779 32.9458 17.3664 32.7461 17.5717ZM32.5796 9.9044C32.2523 10.1707 31.8528 10.265 31.3757 10.1873C30.8764 10.1041 30.6212 10.0154 30.6212 9.92104C30.6212 9.78234 30.771 9.48275 30.9652 9.22755L31.1594 8.97789L31.6642 9.09994C31.9361 9.17207 32.2246 9.26084 32.2967 9.29412C32.4964 9.39953 32.7849 9.627 32.7849 9.68248C32.7849 9.71022 32.6906 9.81008 32.5796 9.9044ZM31.7641 11.8018C31.4978 11.7685 31.287 11.9849 30.9874 12.5952C30.8542 12.8726 30.6656 13.1777 30.5657 13.272C30.3882 13.444 30.0498 13.5661 29.9665 13.4884C29.9499 13.4662 29.9665 13.3441 30.0109 13.2165C30.0886 13.0113 30.305 12.7949 30.5269 12.7172C30.5713 12.7006 30.5491 12.6451 30.4603 12.5452C30.2661 12.3344 30.2772 12.0903 30.5102 11.7241C30.6933 11.4356 30.9263 11.014 30.9652 10.8975C30.9763 10.8642 31.1039 10.8864 31.3036 10.9641C31.6975 11.1139 31.9527 11.3857 31.9527 11.6409C31.9527 11.8184 31.9416 11.824 31.7641 11.8018ZM30.9707 16.3844C30.7155 16.562 30.5158 16.573 29.9832 16.451C29.6947 16.3789 29.4173 16.3456 29.3119 16.3622C29.0844 16.4066 29.04 16.3067 29.1565 15.9905C29.2065 15.8629 29.2619 15.6687 29.2841 15.5633C29.3119 15.4024 29.3452 15.3636 29.4783 15.3525C29.7613 15.3192 30.1385 15.4524 30.5713 15.7353C30.7987 15.8851 31.0207 16.0072 31.0539 16.0072C31.1871 16.0072 31.1205 16.2735 30.9707 16.3844ZM30.6545 9.15542C30.5824 9.22755 30.4326 9.30522 30.3216 9.32741C30.0609 9.37179 29.2952 9.32741 28.918 9.23864L28.6239 9.17207L28.6239 8.93905C28.6239 8.70604 28.6628 8.62282 29.0234 8.11796L29.1288 7.96261L29.961 8.37871C30.8598 8.83364 30.9152 8.89467 30.6545 9.15542ZM30.3715 11.3191C30.133 11.6908 29.7169 12.0626 28.9124 12.6118C28.5463 12.867 28.1302 13.1777 27.9915 13.2998L27.7363 13.5217L27.3645 13.3941C26.6766 13.1721 25.506 12.7006 24.0746 12.0681C21.7833 11.0639 20.8623 10.7144 19.6362 10.4037C18.9594 10.2317 17.7888 10.0154 17.5225 10.0154C17.3338 10.0154 17.3283 10.0154 17.4725 9.78234C17.5391 9.66584 17.5835 9.4994 17.5835 9.33851C17.5835 9.11104 17.5502 9.03337 17.3005 8.71159C17.1452 8.50631 17.0065 8.2622 16.9899 8.15679C16.9621 7.9959 16.9788 7.96261 17.1286 7.88494C17.4392 7.72405 17.7111 7.79063 18.1438 8.14015L18.338 8.29549L18.7486 8.12905C19.9747 7.62419 21.3006 7.46884 22.6987 7.66302C24.4796 7.90713 25.7279 8.36761 28.6628 9.83782C30.8542 10.9363 30.7044 10.8032 30.3715 11.3191ZM29.4728 13.3996C29.2231 14.1708 28.5407 15.0474 28.0802 15.1805C27.7474 15.2804 27.7085 15.2249 27.7806 14.7367C27.8139 14.5203 27.9027 14.2096 27.9748 14.0432C28.2411 13.4606 28.8569 12.9558 29.3951 12.867L29.6281 12.8282L29.5893 12.9891C29.5726 13.0778 29.5172 13.2609 29.4728 13.3996ZM28.3022 8.18453C27.9748 8.50076 27.7917 8.54515 27.4644 8.4009C27.3313 8.34542 27.1537 8.29549 27.065 8.29549C26.9318 8.29549 26.9041 8.2733 26.9041 8.15679C26.9041 7.54652 27.8139 7.24693 28.4353 7.65747C28.6295 7.78508 28.6017 7.89604 28.3022 8.18453ZM27.2314 15.3525C27.1038 15.7353 26.8708 16.107 26.6433 16.2846C26.4547 16.4343 26.1218 16.5786 26.0774 16.5287C26.0608 16.512 26.0441 16.3067 26.0497 16.0737C26.0497 15.6188 26.1606 15.2915 26.4436 14.8809C26.6045 14.6535 26.9817 14.3982 27.1704 14.3982C27.3701 14.3982 27.3978 14.8587 27.2314 15.3525ZM26.6489 7.4633C26.4713 7.66857 26.2882 7.76843 25.9831 7.82391C25.3174 7.92932 24.8347 7.41336 25.2064 6.98617C25.3174 6.85302 25.3839 6.83083 25.6946 6.80864C26.0719 6.78644 26.5934 6.86966 26.721 6.97507C26.8375 7.06939 26.8042 7.27466 26.6489 7.4633ZM25.4283 16.3567C25.2896 16.6563 25.0843 17.0058 24.9734 17.1278C24.7348 17.3941 24.3187 17.605 24.2244 17.5107C24.119 17.4052 24.1523 16.8394 24.2799 16.5509C24.5073 16.0515 25.1787 15.5245 25.7334 15.4191L25.9165 15.3802L25.8 15.5966C25.739 15.7131 25.5726 16.0571 25.4283 16.3567ZM24.9068 13.8435L24.0746 13.8435L24.0136 13.6937C23.8749 13.3219 23.6585 13.2165 22.8152 13.0889C22.4879 13.039 22.1384 12.9669 22.0385 12.928C21.8721 12.8559 21.8665 12.8393 21.9109 12.6728C22.0219 12.2956 22.3714 12.0681 22.843 12.0681C23.3534 12.0681 23.8249 12.3067 23.9858 12.6506C24.0802 12.8448 24.0857 12.8448 24.4352 12.8448C25.1065 12.8448 25.567 13.0168 25.6835 13.3108C25.7113 13.3719 25.7334 13.5217 25.7334 13.6382L25.739 13.8435L24.9068 13.8435ZM24.8846 15.4357C24.3853 15.7741 23.6252 16.0793 22.8984 16.2402C22.1772 16.4011 20.7958 16.4122 20.1522 16.2679C19.2312 16.0571 18.4656 15.7076 18.277 15.4024C18.216 15.3081 17.9719 14.9475 17.7333 14.6035C17.1119 13.7103 16.9455 13.333 16.8401 12.5508L16.8123 12.34L17.1008 12.3788C18.8429 12.5896 20.1966 12.9946 23.3534 14.2485C24.1634 14.5702 24.9512 14.8754 25.1121 14.9309C25.456 15.0529 25.4505 15.064 24.8846 15.4357ZM24.9234 6.78644C24.818 6.95843 24.524 7.07494 24.2022 7.07494C23.9304 7.07494 23.3312 6.95288 23.0649 6.84747L22.9095 6.78644L23.137 6.53124C23.2591 6.38699 23.4033 6.20391 23.4532 6.12069C23.5032 6.03192 23.5642 5.96535 23.5919 5.96535C23.714 5.96535 24.5739 6.20946 24.8125 6.30932C25.0954 6.43137 25.1121 6.4924 24.9234 6.78644ZM23.7084 17.2665C23.5864 17.4607 23.4643 17.5717 23.2424 17.6826C22.9262 17.838 21.5836 18.2541 21.5392 18.2041C21.4893 18.1542 21.5891 18.0599 21.8055 17.9434C22.033 17.8269 22.1273 17.6993 22.0441 17.6161C22.0163 17.5883 21.6501 17.6383 21.2174 17.7326C20.4518 17.8935 19.6307 17.96 19.5475 17.8768C19.5197 17.8546 19.5364 17.727 19.5808 17.5994C19.7472 17.1334 20.1744 16.9836 21.6612 16.8671C23.0371 16.7561 23.2147 16.7173 23.8749 16.4066C23.9026 16.39 23.9137 16.5231 23.8971 16.6896C23.8804 16.9059 23.8194 17.0835 23.7084 17.2665ZM22.9428 6.00973C22.843 6.20391 22.5988 6.42583 22.3658 6.54788C22.1439 6.65884 21.5225 6.79754 21.2341 6.79754C21.0232 6.79754 21.0232 6.79754 21.0232 6.57562C21.0232 5.85993 21.8277 5.45493 22.7764 5.6935C23.0427 5.76007 23.0593 5.78781 22.9428 6.00973ZM21.7888 12.1402L21.5503 12.5064L21.1619 12.5119C20.9511 12.5119 20.5794 12.4731 20.3408 12.4287C20.1023 12.3843 19.8914 12.3455 19.8803 12.3455C19.8693 12.3455 19.8582 12.2345 19.8582 12.0958C19.8582 11.7907 20.0745 11.5133 20.4074 11.4023C20.8734 11.2526 22.0219 11.4578 22.0219 11.6964C22.0219 11.7352 21.9165 11.9405 21.7888 12.1402ZM20.6071 6.13733C20.0523 6.62555 19.6584 6.85302 19.3644 6.85302C19.0703 6.85302 19.0038 6.79199 19.0482 6.55898C19.1036 6.27603 19.3644 5.94315 19.6473 5.81C20.0246 5.63247 21.1675 5.50486 21.1231 5.64356C21.112 5.6713 20.879 5.89322 20.6071 6.13733ZM19.9358 11.186C19.8859 11.2304 19.7417 11.3136 19.614 11.3746C19.4254 11.4689 19.381 11.5189 19.3699 11.6687C19.3533 11.8295 19.3366 11.8462 19.2312 11.8129C18.9206 11.713 18.682 11.6797 18.2104 11.6797L17.6945 11.6797L17.6945 11.5189C17.6945 11.2914 17.9108 11.0029 18.1938 10.8586C18.4157 10.7421 18.5045 10.731 18.9705 10.7477C19.3533 10.7643 19.5697 10.8032 19.7638 10.8864C20.0468 11.0195 20.0745 11.0695 19.9358 11.186ZM19.5142 16.8782C19.1258 17.2277 18.8873 17.2055 17.7222 16.7117L17.3893 16.5675L17.3449 16.279C17.2895 15.9073 17.1896 15.7464 16.779 15.4191C16.4295 15.1361 16.252 14.9419 16.1854 14.7811C16.1577 14.7034 16.191 14.6701 16.3408 14.6202C16.5072 14.5647 16.6071 14.5758 17.0453 14.7034C17.3283 14.7866 17.5835 14.8643 17.6168 14.8698C17.6501 14.8809 17.7055 15.0196 17.7444 15.1861C17.8054 15.4246 17.8054 15.5189 17.7499 15.6133C17.6945 15.7187 17.7 15.752 17.7888 15.8185C17.9608 15.9572 18.2881 16.1126 18.7097 16.2624C19.1869 16.4343 19.6362 16.6563 19.6362 16.7173C19.6362 16.745 19.5808 16.8172 19.5142 16.8782ZM17.6279 10.9363C17.3005 11.2359 16.7735 11.3968 16.1133 11.4023C15.5918 11.4023 15.4753 11.3635 15.4753 11.2026C15.4753 10.8808 15.7305 10.5313 16.1133 10.3371C16.3907 10.1929 16.9399 10.143 17.2284 10.2373C17.5114 10.326 17.8054 10.548 17.8054 10.6756C17.8054 10.7255 17.7222 10.8476 17.6279 10.9363ZM16.8678 14.2041C16.6514 14.2485 16.2686 14.143 16.0467 13.9766C15.9413 13.8934 15.786 13.677 15.675 13.4384C15.5086 13.0945 15.4919 13.0279 15.5585 12.9613C15.6916 12.8282 16.0245 12.8837 16.4129 13.1056C16.7347 13.2887 16.7846 13.3441 16.8068 13.5106C16.8234 13.616 16.8789 13.7935 16.9344 13.8989C17.0564 14.1597 17.0564 14.1597 16.8678 14.2041ZM16.7125 9.84892C16.3629 9.84337 16.0023 9.68248 15.8969 9.46611C15.7804 9.24419 15.7804 8.817 15.8969 8.77261C16.3463 8.60063 16.9621 9.12768 16.9732 9.69912C16.9732 9.84337 16.9621 9.84892 16.7125 9.84892ZM15.3255 10.5591C13.6777 11.1638 13.6223 11.1804 13.5057 11.0695C13.2006 10.781 12.5681 10.7199 11.6194 10.8753C11.3476 10.9197 11.0369 10.9752 10.9426 10.9918C10.7928 11.014 10.7595 11.0029 10.7595 10.9197C10.7595 10.5313 11.048 10.0986 11.4475 9.88775C11.625 9.79344 11.7692 9.7657 12.1188 9.7657C12.607 9.7657 12.8178 9.84337 13.1229 10.1374L13.2949 10.2983L13.539 10.1319C13.9718 9.82673 14.5876 9.74906 15.2423 9.91549L15.4753 9.97652L15.4753 10.2373C15.4753 10.4758 15.4586 10.5091 15.3255 10.5591ZM10.3212 10.1541C10.0216 10.8143 9.04518 11.186 8.39607 10.8919C8.22963 10.8143 8.22963 10.781 8.40162 10.5258C8.47374 10.4148 8.55142 10.2428 8.57361 10.143C8.60135 9.99317 8.64018 9.95988 8.86765 9.9044C9.00635 9.86556 9.4169 9.82673 9.77751 9.81008C10.5043 9.77125 10.4987 9.77125 10.3212 10.1541ZM7.85237 10.2872C7.65819 10.6534 7.16997 10.9308 6.45983 11.0639C6.27675 11.1028 6.06593 11.1416 5.99935 11.1582C5.87175 11.186 5.8662 11.1749 5.89394 10.9197C5.91059 10.7754 5.95497 10.5369 5.99935 10.3871C6.06038 10.1596 6.09922 10.1097 6.30449 10.0098C6.65401 9.84337 7.7747 9.71577 7.89121 9.83227C7.95778 9.8933 7.93559 10.1263 7.85237 10.2872ZM5.03401 10.9474C4.83983 11.0195 4.5236 11.136 4.32387 11.2082C4.11305 11.2914 3.8412 11.3469 3.66366 11.3469L3.36407 11.3469L3.39181 11.0695C3.45839 10.3649 4.12414 9.97652 5.0673 10.093L5.37798 10.1319L5.37798 10.4758L5.37798 10.8198L5.03401 10.9474ZM2.95907 11.3191C2.83702 11.4356 2.74825 11.3968 2.72606 11.2193C2.70387 11.0584 2.8925 10.8143 2.98681 10.8753C3.08113 10.9308 3.05893 11.2137 2.95907 11.3191ZM2.80373 10.6978C2.43756 11.2636 1.87167 11.6853 1.30578 11.8129L1.14489 11.8517L1.17818 11.5743C1.2392 11.0584 1.52215 10.6478 1.97154 10.4315C2.22674 10.3039 2.99236 10.2428 2.99236 10.3427C2.99236 10.3815 2.90914 10.5369 2.80373 10.6978Z" fill="#6A8D92"/>
</svg>
